<?xml version="1.0" encoding="UTF-8" standalone="no"?>
<svg
   xmlns:dc="http://purl.org/dc/elements/1.1/"
   xmlns:cc="http://creativecommons.org/ns#"
   xmlns:rdf="http://www.w3.org/1999/02/22-rdf-syntax-ns#"
   xmlns:svg="http://www.w3.org/2000/svg"
   xmlns="http://www.w3.org/2000/svg"
   xmlns:sodipodi="http://sodipodi.sourceforge.net/DTD/sodipodi-0.dtd"
   xmlns:inkscape="http://www.inkscape.org/namespaces/inkscape"
   width="188.68533mm"
   height="21.166666mm"
   viewBox="0 0 188.68533 21.166666"
   version="1.1"
   id="svg8"
   inkscape:version="1.0.2-2 (e86c870879, 2021-01-15)"
   sodipodi:docname="logos.svg">
  <defs
     id="defs2">
    <style
       id="style10">.cls-1,.cls-13{fill:#fff;}.cls-2{fill:#de3b26;}.cls-3{fill:#aac938;}.cls-4{fill:#40bbc7;}.cls-5{fill:#3f9cd6;}.cls-6{fill:#ed3c34;}.cls-7{fill:#ed7e22;}.cls-8{fill:#6a4da0;}.cls-9{fill:#793c97;}.cls-10{fill:#eeda13;}.cls-11{fill:#eb1288;}.cls-12{fill:none;}.cls-13{stroke:#fff;stroke-miterlimit:10;stroke-width:0.28px;}</style>
  </defs>
  <sodipodi:namedview
     id="base"
     pagecolor="#ffffff"
     bordercolor="#666666"
     borderopacity="1.0"
     inkscape:pageopacity="0.0"
     inkscape:pageshadow="2"
     inkscape:zoom="0.7"
     inkscape:cx="784.56473"
     inkscape:cy="482.96465"
     inkscape:document-units="mm"
     inkscape:current-layer="layer1"
     inkscape:document-rotation="0"
     showgrid="false"
     inkscape:window-width="2466"
     inkscape:window-height="1417"
     inkscape:window-x="86"
     inkscape:window-y="-8"
     inkscape:window-maximized="1"
     fit-margin-top="0"
     fit-margin-left="0"
     fit-margin-right="0"
     fit-margin-bottom="0"
     lock-margins="true" />
  <metadata
     id="metadata5">
    <rdf:RDF>
      <cc:Work
         rdf:about="">
        <dc:format>image/svg+xml</dc:format>
        <dc:type
           rdf:resource="http://purl.org/dc/dcmitype/StillImage" />
        <dc:title></dc:title>
      </cc:Work>
    </rdf:RDF>
  </metadata>
  <g
     inkscape:label="Calque 1"
     inkscape:groupmode="layer"
     id="layer1"
     transform="translate(-9.4117983)">
    <g
       id="g162"
       transform="matrix(0.26458333,0,0,0.26458333,9.4118024,-0.00116471)">
      <path
         class="cls-1"
         d="m 305.16,278.13 25,-7.3 12.66,3.65 12.83,7.52 4.26,20.59 c 0,0 -5.78,12.57 -5.53,14.76 0.25,2.19 -3.26,5.84 -4.76,7.77 -1.5,1.93 4.8,4.35 -3.1,5.89 -7.9,1.54 -10,4.06 -13.2,3 -3.2,-1.06 -2.17,-2.74 -8.18,-3.38 -6.01,-0.64 -8.16,0.13 -11.34,0 -3.18,-0.13 -12.42,-1.26 -12.42,-1.26 l -7.53,-9.53 c 0,0 -0.44,-8.17 -0.08,-9.76 0.36,-1.59 -0.33,-13.13 -0.33,-13.13 l 5.85,-8.75 z"
         transform="translate(-283.93,-261.38)"
         id="path16" />
      <g
         id="_Group_"
         data-name="&lt;Group&gt;">
        <circle
           id="_Path_"
           data-name="&lt;Path&gt;"
           class="cls-2"
           cx="75.980003"
           cy="15.02"
           r="5.5700002" />
        <path
           id="_Path_2"
           data-name="&lt;Path&gt;"
           class="cls-3"
           d="m 337.37,262.62 c -19.82,-4.8 -39.16,4.81 -43.19,21.46 a 26.58,26.58 0 0 0 -0.36,10.72 26.55,26.55 0 0 1 4,-4.49 c 4,-6.4 10.46,-10.54 17.7,-10.54 a 18.89,18.89 0 0 1 6.83,1.29 15.31,15.31 0 0 1 6.1,-1.29 15.07,15.07 0 0 1 3,0.31 c 1.38,-0.2 2.87,0.2 4.21,-0.31 15.85,-6 27.28,11.49 28.71,26.2 a 26.39,26.39 0 0 0 1.53,-4.5 c 4.1,-16.65 -8.72,-34.05 -28.53,-38.85 z"
           transform="translate(-283.93,-261.38)" />
        <path
           id="_Path_3"
           data-name="&lt;Path&gt;"
           class="cls-3"
           d="m 331.67,275.93 a 16.93,16.93 0 0 0 -3.42,-0.35 17.2,17.2 0 0 0 -6.86,1.44 22.39,22.39 0 0 1 2.43,1.11 32,32 0 0 1 7.85,-2.2 z"
           transform="translate(-283.93,-261.38)" />
        <path
           id="_Path_4"
           data-name="&lt;Path&gt;"
           class="cls-4"
           d="m 313.72,334.54 c -13.7,0 -24.81,-13.2 -24.81,-29.48 a 34.54,34.54 0 0 1 1.22,-9.12 31.85,31.85 0 0 1 -0.79,-3.48 29.32,29.32 0 0 0 -5.41,17 29.84,29.84 0 0 0 38.57,28.29 32.35,32.35 0 0 1 -5.65,-3.46 21.11,21.11 0 0 1 -3.13,0.25 z"
           transform="translate(-283.93,-261.38)" />
        <path
           id="_Path_5"
           data-name="&lt;Path&gt;"
           class="cls-5"
           d="m 293.84,287.42 a 29.82,29.82 0 0 0 -4.5,5 31.85,31.85 0 0 0 0.79,3.48 31.69,31.69 0 0 1 3.71,-8.48 z"
           transform="translate(-283.93,-261.38)" />
        <path
           id="_Path_6"
           data-name="&lt;Path&gt;"
           class="cls-6"
           d="m 338.92,325.25 0.1,-0.16 h -0.15 z"
           transform="translate(-283.93,-261.38)" />
        <g
           id="_Group_2"
           data-name="&lt;Group&gt;">
          <path
             id="_Path_7"
             data-name="&lt;Path&gt;"
             class="cls-7"
             d="m 368.65,305 a 32.37,32.37 0 0 0 -37,-29.08 32,32 0 0 0 -7.85,2.2 26.2,26.2 0 0 1 9.78,9.29 33.13,33.13 0 0 1 4.93,17.64 c 0,0.19 0,0.37 0,0.55 h 1 a 9.42,9.42 0 0 1 1.49,0 43.82,43.82 0 0 0 -2.36,-12.24 l -0.31,-0.92 c -2,-6 -1.29,-10.29 2.08,-11.91 v 0 c 3.64,-1.73 10,0.15 12.38,4.43 a 21.74,21.74 0 0 1 2.28,15.35 c -1,3.84 -1.81,6.52 -4.14,9.64 a 48.1,48.1 0 0 1 -5.38,6.18 27.37,27.37 0 0 0 -4.38,4.68 17.73,17.73 0 0 1 -2.63,3.73 c 0.07,0.15 0.15,0.37 0.24,0.62 h 0.15 l -0.1,0.16 c 0.31,0.85 0.66,2 0.69,2 l 0.06,0.17 h -3.91 l -0.29,-2.07 v -0.29 0 l 0.06,-0.14 c -1,-0.26 -1.92,-0.56 -2.8,-0.88 q -0.5,0.7 -1,1.36 a 24.69,24.69 0 0 1 -10.27,7.68 21.38,21.38 0 0 1 -4.54,1.2 32.36,32.36 0 0 0 52,-26.05 c -0.02,-1.15 -0.08,-2.23 -0.18,-3.3 z"
             transform="translate(-283.93,-261.38)" />
          <path
             id="_Path_8"
             data-name="&lt;Path&gt;"
             class="cls-7"
             d="m 339.78,315.3 -0.23,0.37 a 9.39,9.39 0 0 1 3.36,0.66 l 0.34,0.15 0.12,0.06 a 9.87,9.87 0 0 0 1.23,-0.85 28.58,28.58 0 0 0 5.84,-6.84 28.2,28.2 0 0 0 3.53,-8.79 18.13,18.13 0 0 0 -2.97,-14.27 c -2.69,-3.9 -15,-8 -11.85,6.46 0.18,0.85 0.43,1.72 0.7,2.65 a 43.35,43.35 0 0 1 1.86,10.72 c 0,0.15 0,0.3 0,0.46 a 23.49,23.49 0 0 1 -0.41,4.87 14.3,14.3 0 0 1 -1.52,4.35 z"
             transform="translate(-283.93,-261.38)" />
        </g>
        <path
           id="_Path_9"
           data-name="&lt;Path&gt;"
           class="cls-7"
           d="m 338.8,315.67 a 12.8,12.8 0 0 0 1.88,-4.86 23.18,23.18 0 0 0 0.39,-4.78 c -0.5,0 -1,0 -1.49,0 h -1.07 a 34.18,34.18 0 0 1 -1.7,9.78 15.35,15.35 0 0 1 1.99,-0.14 z"
           transform="translate(-283.93,-261.38)" />
        <path
           id="_Path_10"
           data-name="&lt;Path&gt;"
           class="cls-8"
           d="m 315.17,321.93 a 47.94,47.94 0 0 1 -4.37,-2 22.61,22.61 0 0 0 4.37,2 z"
           transform="translate(-283.93,-261.38)" />
        <path
           id="_Path_11"
           data-name="&lt;Path&gt;"
           class="cls-8"
           d="m 305,316.38 -0.05,-0.06 v 0 z"
           transform="translate(-283.93,-261.38)" />
        <path
           id="_Path_12"
           data-name="&lt;Path&gt;"
           class="cls-9"
           d="m 332.61,312.86 -1.35,-5.49 c -0.29,0.1 -0.58,0.22 -0.86,0.34 0.77,2.03 1.53,3.78 2.21,5.15 z"
           transform="translate(-283.93,-261.38)" />
        <path
           id="_Path_13"
           data-name="&lt;Path&gt;"
           class="cls-9"
           d="m 334,306.15 a 23,23 0 0 0 -4.69,-9.17 c 0.52,2.17 1.41,6.06 2.27,9.81 a 13.1,13.1 0 0 1 2.42,-0.64 z"
           transform="translate(-283.93,-261.38)" />
        <path
           id="_Path_14"
           data-name="&lt;Path&gt;"
           class="cls-9"
           d="m 329.92,307.92 a 16,16 0 0 0 -1.57,0.84 9.46,9.46 0 0 0 3,4.78 c 0,0 1,0.8 1.83,1.57 l -0.17,-0.71 a 40.43,40.43 0 0 1 -3.09,-6.48 z"
           transform="translate(-283.93,-261.38)" />
        <path
           id="_Path_15"
           data-name="&lt;Path&gt;"
           class="cls-9"
           d="m 335.43,316.1 c 0.44,-0.1 0.91,-0.18 1.38,-0.25 a 34.18,34.18 0 0 0 1.7,-9.78 31.63,31.63 0 0 0 -3.88,0.42 35.08,35.08 0 0 1 0.8,9.61 z"
           transform="translate(-283.93,-261.38)" />
        <path
           id="_Path_16"
           data-name="&lt;Path&gt;"
           class="cls-9"
           d="m 334.68,316.28 0.24,-0.06 a 1.87,1.87 0 0 1 0,-0.49 28.45,28.45 0 0 0 -0.81,-9.14 20.25,20.25 0 0 0 -2.43,0.64 l 1.52,6.77 1.39,2.22 z"
           transform="translate(-283.93,-261.38)" />
        <path
           id="_Path_17"
           data-name="&lt;Path&gt;"
           class="cls-9"
           d="m 326.7,320.91 a 5.47,5.47 0 0 1 2,-1.93 c -0.43,0 -1.12,-0.07 -1.54,-0.12 a 12.41,12.41 0 0 1 -5.69,1.46 h -0.68 c -4.9,-0.3 -9.61,-3.8 -14,-10.4 -0.12,-0.18 -0.29,-0.49 -0.5,-0.87 -0.41,-0.78 -1,-1.9 -1.58,-3.14 l -0.2,-0.41 -0.33,-0.69 -1.43,-3 c -0.56,-1.18 -1.05,-2.2 -1.36,-2.83 a 5.66,5.66 0 0 0 -1.48,-2.11 1.46,1.46 0 0 0 -2,0.13 c -0.57,0.54 -0.36,1.12 -0.28,1.81 a 26.75,26.75 0 0 0 2.83,8.58 c 0.07,0.14 0.3,0.73 0.37,0.87 0.56,1.08 1,1.86 1.55,2.85 0.7,1.22 4.21,6 5.34,6.81 0.25,0.19 2.31,1.6 3.05,2 a 47.94,47.94 0 0 0 4.37,2 13.68,13.68 0 0 0 11.56,-1.01 z"
           transform="translate(-283.93,-261.38)" />
        <g
           id="_Group_3"
           data-name="&lt;Group&gt;">
          <path
             id="_Path_18"
             data-name="&lt;Path&gt;"
             class="cls-9"
             d="m 318.1,316.78 c -1.16,-0.61 -2.52,-1.68 -5.17,-4.6 a 59.32,59.32 0 0 1 -3.88,-5.39 c -0.1,0 -0.84,-1.17 -0.94,-1.2 -0.55,-0.16 -0.29,-0.05 -0.85,-0.05 a 8.79,8.79 0 0 0 -1.17,0.09 c -0.31,0 -0.62,0.1 -0.93,0.16 0.37,0.75 0.71,1.46 1,2.06 0.43,0.85 0.78,1.5 1,1.8 4.29,6.48 8.88,9.91 13.63,10.2 a 11.55,11.55 0 0 0 5.55,-1.11 16.31,16.31 0 0 1 -8.24,-1.96 z"
             transform="translate(-283.93,-261.38)" />
          <path
             id="_Path_19"
             data-name="&lt;Path&gt;"
             class="cls-9"
             d="m 333.6,287.42 a 26.2,26.2 0 0 0 -9.78,-9.29 22.39,22.39 0 0 0 -2.43,-1.11 21.22,21.22 0 0 0 -7.67,-1.44 c -8.14,0 -15.36,4.65 -19.88,11.84 a 31.69,31.69 0 0 0 -3.71,8.52 34.54,34.54 0 0 0 -1.22,9.12 c 0,16.28 11.11,29.48 24.81,29.48 a 21.11,21.11 0 0 0 3.13,-0.24 21.38,21.38 0 0 0 4.54,-1.2 24.69,24.69 0 0 0 10.27,-7.68 q 0.53,-0.66 1,-1.36 a 12.32,12.32 0 0 1 -3.27,-1.52 10.43,10.43 0 0 1 -2.09,2.24 c -17,11 -30.63,-10.77 -29,-15.19 a 5.53,5.53 0 0 1 1.05,-2 25.08,25.08 0 0 1 -2.55,-8.59 3,3 0 0 1 0.58,-2.58 2.22,2.22 0 0 1 2.78,0 6,6 0 0 1 1.62,2.27 c 0.31,0.63 0.8,1.66 1.36,2.84 l 1.13,2.37 0.44,0.92 c 1.17,-0.7 3.2,0.18 2.88,-0.52 -0.49,-1.08 -1.29,-2.15 -1.92,-3.65 -0.29,-0.7 -0.72,-1.57 -1,-2.27 a 20.63,20.63 0 0 1 -1.47,-5.53 13.24,13.24 0 0 1 0,-4.87 9.55,9.55 0 0 1 4.47,-5.69 15.22,15.22 0 0 1 7.66,-2.07 c 0.3,0 0.57,0 0.83,0.08 a 5.53,5.53 0 0 1 2.13,0.68 l 0.09,0.06 a 5.75,5.75 0 0 1 2.46,3 c 0.81,2.44 1.63,4.65 2.42,6.78 l 0.87,2.35 a 1.74,1.74 0 0 1 0.37,-0.81 c 0.43,-0.55 1.07,-0.78 1.41,-0.5 0.34,0.28 0.28,0.84 -0.07,1.36 a 17.93,17.93 0 0 1 1.57,1.1 2.21,2.21 0 0 1 0.83,-0.35 c 0.76,-0.16 1.44,0.05 1.53,0.47 0.09,0.42 -0.3,0.73 -0.87,0.94 l 0.09,0.33 a 21.81,21.81 0 0 1 5.54,10.3 32.06,32.06 0 0 1 4,-0.43 c 0,-0.18 0,-0.37 0,-0.55 a 33.13,33.13 0 0 0 -4.93,-17.61 z"
             transform="translate(-283.93,-261.38)" />
          <path
             id="_Path_20"
             data-name="&lt;Path&gt;"
             class="cls-9"
             d="m 327.11,321.2 -0.18,0.1 c -3.69,2.5 -4.55,2.86 -8.44,2.85 -7.49,0 -16.31,-8.71 -18.62,-15.67 -0.46,0.64 5.37,19.81 21.67,17.5 a 8.55,8.55 0 0 0 6.21,-4.33 z"
             transform="translate(-283.93,-261.38)" />
          <path
             id="_Path_21"
             data-name="&lt;Path&gt;"
             class="cls-9"
             d="m 333.17,315.72 c -0.81,-0.75 -1.89,-1.67 -2.1,-1.81 A 5.86,5.86 0 0 1 329.81,312.68 12.85,12.85 0 0 1 328,309 l -0.15,-0.44 a 40.08,40.08 0 0 1 -1.17,-5 c -0.05,-0.28 -0.1,-0.52 -0.13,-0.73 A 74.68,74.68 0 0 0 322.84,291 c -0.79,-2.14 -1.61,-4.34 -2.42,-6.79 a 5.31,5.31 0 0 0 -2.35,-2.8 h -0.08 a 5.77,5.77 0 0 0 -2.15,-0.73 l -0.52,-0.05 H 315 c -2.37,0 -5.2,1.64 -6.72,2.56 a 8.48,8.48 0 0 0 -3.91,5.31 12,12 0 0 0 0,4 29.34,29.34 0 0 0 1.28,5.39 c 0.05,-0.15 0.1,-0.28 0.15,-0.4 0,0.14 -0.1,0.27 -0.15,0.4 0.23,0.68 0.48,1.36 0.76,2 a 29.21,29.21 0 0 0 2,4 c 0.38,0.62 0.73,1.14 1.06,1.61 l 0.53,0.74 a 57.87,57.87 0 0 0 3.74,4.49 29.7,29.7 0 0 0 4.66,4.38 19.18,19.18 0 0 0 8.6,3.29 l 0.77,0.09 c 0.42,0 0.84,0.07 1.26,0.08 h 0.08 a 21.92,21.92 0 0 1 3.14,-1.48 c 0.43,-0.16 1,-0.37 1.67,-0.56 z"
             transform="translate(-283.93,-261.38)" />
        </g>
        <path
           id="_Path_22"
           data-name="&lt;Path&gt;"
           class="cls-9"
           d="M 327.11,295.23 A 0.45,0.45 0 0 1 327,295 a 0.47,0.47 0 0 1 0,-0.26 q -0.72,-0.6 -1.52,-1.15 a 1,1 0 0 1 -1.13,0.3 c 0.23,0.63 0.45,1.26 0.66,1.88 0.09,-0.23 0.59,-0.47 1.22,-0.56 a 3,3 0 0 1 0.88,0.02 z"
           transform="translate(-283.93,-261.38)" />
        <path
           id="_Path_23"
           data-name="&lt;Path&gt;"
           class="cls-9"
           d="m 326.39,296.51 a 2.64,2.64 0 0 1 0,-0.33 h -0.31 a 1.89,1.89 0 0 1 -0.8,-0.08 0.61,0.61 0 0 1 -0.17,-0.09 52.35,52.35 0 0 1 1.82,6.66 c 0,0.2 0.08,0.45 0.14,0.73 a 40.51,40.51 0 0 0 1.12,4.88 16.6,16.6 0 0 1 1.55,-0.82 101.88,101.88 0 0 1 -3.35,-10.95 z"
           transform="translate(-283.93,-261.38)" />
        <path
           id="_Path_24"
           data-name="&lt;Path&gt;"
           class="cls-9"
           d="m 326.93,296.51 a 92.78,92.78 0 0 0 3.31,10.77 c 0.3,-0.13 0.61,-0.25 0.92,-0.36 l -2.66,-10.81 -0.57,-0.56 h -0.27 v 0 a 0.19,0.19 0 0 1 0,0.14 1.5,1.5 0 0 1 -0.86,0.45 3.42,3.42 0 0 1 0.13,0.37 z"
           transform="translate(-283.93,-261.38)" />
        <circle
           id="_Path_25"
           data-name="&lt;Path&gt;"
           class="cls-10"
           cx="7.6100001"
           cy="26.040001"
           r="3.98" />
        <ellipse
           id="_Path_26"
           data-name="&lt;Path&gt;"
           class="cls-11"
           cx="35.16"
           cy="75.760002"
           rx="4.3699999"
           ry="3.76" />
      </g>
      <path
         id="_Path_27"
         data-name="&lt;Path&gt;"
         class="cls-12"
         d="m 543.51,323.94 c 0.35,-0.25 2,3.79 2.3,5.25 0.3,1.46 -9.59,8.41 -13.17,1.48 -0.64,-2.93 2.7,-3.33 3.55,-3.18 -2.37,1.83 5.73,3.71 7.32,-3.55 z"
         transform="translate(-283.93,-261.38)" />
      <path
         class="cls-1"
         d="M 546.13,329.11 A 25,25 0 0 0 545,326 c -0.9,-2.18 -1.2,-2.3 -1.35,-2.35 a 0.39,0.39 0 0 0 -0.37,0 l -0.11,0.07 v 0.13 c -0.94,4.31 -4.07,4.87 -5,4.94 -1.13,0.09 -1.9,-0.25 -2.05,-0.54 a 4.91,4.91 0 0 0 -0.66,0.12 v 0.08 c 0.26,0.69 1.39,1.1 2.74,1 3,-0.23 4.77,-2.57 5.45,-4.87 a 26.29,26.29 0 0 1 1.81,4.66 c 0.07,0.43 -2.1,2.61 -5.31,3.65 -4.23,1.37 -6.27,-0.51 -7.23,-2.35 a 2.94,2.94 0 0 1 -0.06,-0.53 0.46,0.46 0 0 1 -0.21,-0.2 c -0.12,-0.22 -0.21,-0.45 -0.31,-0.68 a 3,3 0 0 0 -0.05,1.59 v 0.08 a 5.6,5.6 0 0 0 5.21,3.2 9.75,9.75 0 0 0 3.37,-0.68 c 2.8,-1 5.5,-3.19 5.26,-4.21 z"
         transform="translate(-283.93,-261.38)"
         id="path48" />
      <path
         id="_Path_28"
         data-name="&lt;Path&gt;"
         class="cls-12"
         d="m 534.94,323.64 c -2.52,1.13 -8,-0.88 -8,-0.88 0,0 -1.75,2.21 2.23,5.5 0.56,0.52 4.1,1.13 4.1,1.13 l 2,-2.16 c 0,0 2.19,-4.72 -0.33,-3.59 z"
         transform="translate(-283.93,-261.38)" />
      <path
         class="cls-13"
         d="m 527.47,323.3 a 20.1,20.1 0 0 0 5.4,1 3.46,3.46 0 0 1 0.7,-0.68 c -2.62,0.24 -6.52,-1.15 -6.56,-1.17 l -0.22,-0.08 -0.08,0.1 a 3.29,3.29 0 0 1 0.76,0.83 z"
         transform="translate(-283.93,-261.38)"
         id="path51" />
      <path
         id="_Path_29"
         data-name="&lt;Path&gt;"
         class="cls-12"
         d="m 527,333.69 a 3.62,3.62 0 0 0 2.35,-0.86 l 3.82,-3.81 c 0,0 -6.34,-6.78 -6.69,-6.87 -0.08,0 -130.07,-0.73 -130.52,-0.1 -1.51,2.1 2.87,9.36 -1,11.48 -1.39,0.79 131.32,0.06 132.04,0.16 z"
         transform="translate(-283.93,-261.38)" />
      <path
         class="cls-1"
         d="m 532.64,329.55 a 3.57,3.57 0 0 0 0,-0.4 l -3.45,3.44 a 3.74,3.74 0 0 1 -2.07,0.77 c -0.21,0 -6.24,0 -23.42,0 -33,0.11 -99.87,0.34 -107.79,-0.1 1.68,-1.56 1.1,-4.42 0.57,-7 -0.34,-1.67 -0.67,-3.24 -0.24,-4 4.49,-0.55 126.39,0.42 130.22,0.47 0.55,0.44 3.83,3.57 6.1,6 0,-0.07 0,-0.14 -0.05,-0.21 a 0.4,0.4 0 0 1 0.25,-0.54 c -5.68,-6.06 -6,-6.16 -6.11,-6.19 -0.11,-0.03 -40.37,-0.23 -65.21,-0.31 -18.84,-0.06 -33.93,0.28 -44.83,-0.06 -20,-0.62 -20.63,0.22 -20.84,0.39 -1.11,0.89 -0.34,2.66 0.06,4.63 0.54,2.63 1.16,5.61 -0.94,6.76 l -0.23,0.14 0.06,0.25 c 0.09,0.35 0.32,1.14 12,0.54 6.34,-0.33 15.43,0.07 27,0.07 h 1.45 c 22.41,0 49,-0.09 68.48,-0.16 13.29,0 22.91,0.25 23.34,0.28 0.95,0.12 2.22,-0.9 2.61,-1.28 l 3.17,-3.16 a 0.48,0.48 0 0 1 -0.13,-0.33 z"
         transform="translate(-283.93,-261.38)"
         id="path54" />
      <path
         id="_Path_30"
         data-name="&lt;Path&gt;"
         class="cls-12"
         d="m 537.36,328.26 -0.8,-5.31 c 0,0 -4.44,0.36 -4.26,2.57 0.18,2.21 0.15,5.27 0.41,5.14 a 5.45,5.45 0 0 1 4.65,-2.4 z"
         transform="translate(-283.93,-261.38)" />
      <path
         id="_Compound_Path_"
         data-name="&lt;Compound Path&gt;"
         class="cls-1"
         d="m 532.69,331 a 0.36,0.36 0 0 1 -0.18,0 c -0.27,-0.16 -0.31,-0.45 -0.41,-2.85 0,-0.82 -0.07,-1.74 -0.13,-2.54 -0.2,-2.51 4.37,-2.91 4.56,-2.92 h 0.3 l 0.91,6 h -0.41 a 5.09,5.09 0 0 0 -4.36,2.26 v 0.07 H 532.9 A 0.36,0.36 0 0 1 532.69,331 Z m 3.59,-7.67 c -0.95,0.13 -3.78,0.65 -3.66,2.18 0.06,0.81 0.1,1.74 0.14,2.57 0,0.64 0.06,1.37 0.1,1.87 a 5.76,5.76 0 0 1 4.12,-2 z"
         transform="translate(-283.93,-261.38)" />
      <g
         id="_Group_4"
         data-name="&lt;Group&gt;">
        <path
           id="_Compound_Path_2"
           data-name="&lt;Compound Path&gt;"
           class="cls-1"
           d="m 400.27,332.23 v -8.59 h 2.17 a 3.59,3.59 0 0 1 1.21,0.18 2.33,2.33 0 0 1 0.82,0.48 1.74,1.74 0 0 1 0.46,0.69 2.43,2.43 0 0 1 0.14,0.81 v 0.31 a 2.29,2.29 0 0 1 -0.07,0.59 1.29,1.29 0 0 1 -0.2,0.42 2,2 0 0 1 -0.76,0.58 1.53,1.53 0 0 1 0.77,0.6 2,2 0 0 1 0.25,1.09 v 0.48 a 2.23,2.23 0 0 1 -0.66,1.74 3.08,3.08 0 0 1 -2.12,0.6 z m 1.48,-7.43 v 2.37 h 0.67 a 1.26,1.26 0 0 0 1,-0.31 1.38,1.38 0 0 0 0.26,-0.9 1.2,1.2 0 0 0 -0.28,-0.87 1.42,1.42 0 0 0 -1,-0.29 z m 0,3.45 V 331 h 0.64 a 1.85,1.85 0 0 0 0.71,-0.11 0.86,0.86 0 0 0 0.39,-0.3 1,1 0 0 0 0.16,-0.46 5.33,5.33 0 0 0 0,-0.58 3.22,3.22 0 0 0 0,-0.57 0.93,0.93 0 0 0 -0.17,-0.41 0.84,0.84 0 0 0 -0.39,-0.25 2.23,2.23 0 0 0 -0.65,-0.08 z"
           transform="translate(-283.93,-261.38)" />
        <path
           id="_Compound_Path_3"
           data-name="&lt;Compound Path&gt;"
           class="cls-1"
           d="m 413.45,323.64 v 6.66 a 1.68,1.68 0 0 1 -0.18,0.78 2,2 0 0 1 -0.52,0.63 2.53,2.53 0 0 1 -0.77,0.43 2.73,2.73 0 0 1 -0.93,0.16 2.67,2.67 0 0 1 -0.92,-0.16 2.54,2.54 0 0 1 -0.76,-0.43 2.1,2.1 0 0 1 -0.52,-0.63 1.63,1.63 0 0 1 -0.19,-0.78 v -6.66 h 1.48 v 6.54 a 0.83,0.83 0 0 0 0.26,0.68 1.09,1.09 0 0 0 1.31,0 0.83,0.83 0 0 0 0.26,-0.68 v -6.54 z"
           transform="translate(-283.93,-261.38)" />
        <path
           id="_Compound_Path_4"
           data-name="&lt;Compound Path&gt;"
           class="cls-1"
           d="m 417,332.23 v -8.59 h 4.42 v 1.16 h -2.94 v 2.52 h 2.56 v 1.16 h -2.56 V 331 h 2.94 v 1.23 z"
           transform="translate(-283.93,-261.38)" />
        <path
           id="_Compound_Path_5"
           data-name="&lt;Compound Path&gt;"
           class="cls-1"
           d="m 424.53,332.23 v -8.59 H 426 l 2.24,5.18 v 0 -5.18 h 1.48 v 8.59 h -1.4 L 426,327.06 v 0 5.16 z"
           transform="translate(-283.93,-261.38)" />
        <path
           id="_Compound_Path_6"
           data-name="&lt;Compound Path&gt;"
           class="cls-1"
           d="m 433.15,325.66 a 1.88,1.88 0 0 1 0.22,-0.92 2,2 0 0 1 0.58,-0.66 2.62,2.62 0 0 1 0.79,-0.39 3.08,3.08 0 0 1 1.79,0 2.82,2.82 0 0 1 0.81,0.39 2.08,2.08 0 0 1 0.57,0.66 1.88,1.88 0 0 1 0.22,0.92 v 4.54 a 1.86,1.86 0 0 1 -0.22,0.93 2,2 0 0 1 -0.57,0.64 2.64,2.64 0 0 1 -0.81,0.4 3.08,3.08 0 0 1 -1.79,0 2.46,2.46 0 0 1 -0.79,-0.4 1.92,1.92 0 0 1 -0.58,-0.64 1.86,1.86 0 0 1 -0.22,-0.93 z m 1.48,4.54 a 0.75,0.75 0 0 0 0.3,0.66 1.28,1.28 0 0 0 1.41,0 0.75,0.75 0 0 0 0.3,-0.66 v -4.54 a 0.75,0.75 0 0 0 -0.3,-0.66 1.28,1.28 0 0 0 -1.41,0 0.75,0.75 0 0 0 -0.3,0.66 z"
           transform="translate(-283.93,-261.38)" />
        <path
           id="_Compound_Path_7"
           data-name="&lt;Compound Path&gt;"
           class="cls-1"
           d="m 446.41,326.11 h -1.48 v -0.28 a 1.15,1.15 0 0 0 -0.24,-0.73 1,1 0 0 0 -0.81,-0.31 1.09,1.09 0 0 0 -0.49,0.1 0.82,0.82 0 0 0 -0.46,0.6 1.94,1.94 0 0 0 0,0.42 3.39,3.39 0 0 0 0,0.42 0.71,0.71 0 0 0 0.11,0.3 0.73,0.73 0 0 0 0.25,0.23 2.51,2.51 0 0 0 0.46,0.19 l 1.13,0.37 a 3,3 0 0 1 0.8,0.37 1.68,1.68 0 0 1 0.48,0.49 2,2 0 0 1 0.22,0.66 5.41,5.41 0 0 1 0.06,0.84 3.7,3.7 0 0 1 -0.13,1 2,2 0 0 1 -0.42,0.79 2.07,2.07 0 0 1 -0.8,0.53 3.33,3.33 0 0 1 -1.21,0.19 3.12,3.12 0 0 1 -1,-0.16 2.47,2.47 0 0 1 -0.8,-0.43 2.15,2.15 0 0 1 -0.53,-0.65 1.68,1.68 0 0 1 -0.2,-0.8 v -0.46 h 1.48 v 0.39 a 0.89,0.89 0 0 0 0.24,0.61 1,1 0 0 0 0.81,0.27 1.54,1.54 0 0 0 0.59,-0.09 0.74,0.74 0 0 0 0.33,-0.26 0.84,0.84 0 0 0 0.14,-0.4 c 0,-0.16 0,-0.33 0,-0.52 a 4.32,4.32 0 0 0 0,-0.56 0.83,0.83 0 0 0 -0.12,-0.35 0.77,0.77 0 0 0 -0.27,-0.22 3.85,3.85 0 0 0 -0.44,-0.18 l -1.06,-0.36 a 2.3,2.3 0 0 1 -1.29,-0.86 2.54,2.54 0 0 1 -0.33,-1.35 2.63,2.63 0 0 1 0.16,-0.92 2,2 0 0 1 0.48,-0.75 2.2,2.2 0 0 1 0.78,-0.5 3.06,3.06 0 0 1 1.13,-0.19 2.9,2.9 0 0 1 1,0.17 2.69,2.69 0 0 1 0.79,0.45 1.72,1.72 0 0 1 0.67,1.33 z"
           transform="translate(-283.93,-261.38)" />
        <path
           id="_Compound_Path_8"
           data-name="&lt;Compound Path&gt;"
           class="cls-1"
           d="m 453.92,332.23 2.31,-8.59 h 1.24 l 2.31,8.59 h -1.48 l -0.44,-1.85 h -2 l -0.44,1.85 z m 3.67,-3 -0.73,-3.11 v 0 l -0.73,3.11 z"
           transform="translate(-283.93,-261.38)" />
        <path
           id="_Compound_Path_9"
           data-name="&lt;Compound Path&gt;"
           class="cls-1"
           d="m 462.74,332.23 v -8.59 h 1.48 v 8.59 z"
           transform="translate(-283.93,-261.38)" />
        <path
           id="_Compound_Path_10"
           data-name="&lt;Compound Path&gt;"
           class="cls-1"
           d="m 467.84,332.23 v -8.59 h 2.39 q 2.62,0 2.62,2.52 a 2.71,2.71 0 0 1 -0.28,1.29 2,2 0 0 1 -1,0.86 l 1.6,3.92 h -1.57 l -1.38,-3.67 h -0.89 v 3.67 z m 1.48,-7.43 v 2.68 h 0.84 a 1.77,1.77 0 0 0 0.63,-0.09 0.82,0.82 0 0 0 0.36,-0.26 1,1 0 0 0 0.16,-0.42 3.78,3.78 0 0 0 0,-1.15 1,1 0 0 0 -0.17,-0.43 1.31,1.31 0 0 0 -1,-0.34 z"
           transform="translate(-283.93,-261.38)" />
        <path
           id="_Compound_Path_11"
           data-name="&lt;Compound Path&gt;"
           class="cls-1"
           d="m 476.22,332.23 v -8.59 h 4.42 v 1.16 h -2.94 v 2.52 h 2.56 v 1.16 H 477.7 V 331 h 2.94 v 1.23 z"
           transform="translate(-283.93,-261.38)" />
        <path
           id="_Compound_Path_12"
           data-name="&lt;Compound Path&gt;"
           class="cls-1"
           d="m 488.59,326.11 h -1.49 v -0.28 a 1.15,1.15 0 0 0 -0.24,-0.73 1,1 0 0 0 -0.81,-0.31 1.09,1.09 0 0 0 -0.49,0.1 0.82,0.82 0 0 0 -0.46,0.6 1.94,1.94 0 0 0 0,0.42 3.39,3.39 0 0 0 0,0.42 0.71,0.71 0 0 0 0.11,0.3 0.73,0.73 0 0 0 0.25,0.23 2.51,2.51 0 0 0 0.46,0.19 l 1.13,0.37 a 3,3 0 0 1 0.8,0.37 1.68,1.68 0 0 1 0.48,0.49 2,2 0 0 1 0.22,0.66 5.41,5.41 0 0 1 0.06,0.84 3.7,3.7 0 0 1 -0.13,1 2,2 0 0 1 -0.42,0.79 2.07,2.07 0 0 1 -0.8,0.53 3.33,3.33 0 0 1 -1.21,0.19 3.12,3.12 0 0 1 -1,-0.16 2.47,2.47 0 0 1 -0.8,-0.43 2.15,2.15 0 0 1 -0.53,-0.65 1.68,1.68 0 0 1 -0.2,-0.8 v -0.46 H 485 v 0.39 a 0.89,0.89 0 0 0 0.24,0.61 1,1 0 0 0 0.81,0.27 1.54,1.54 0 0 0 0.59,-0.09 0.74,0.74 0 0 0 0.33,-0.26 0.84,0.84 0 0 0 0.14,-0.4 c 0,-0.16 0,-0.33 0,-0.52 a 4.32,4.32 0 0 0 0,-0.56 0.83,0.83 0 0 0 -0.12,-0.35 0.77,0.77 0 0 0 -0.27,-0.22 3.85,3.85 0 0 0 -0.44,-0.18 l -1.06,-0.36 a 2.3,2.3 0 0 1 -1.29,-0.86 2.54,2.54 0 0 1 -0.33,-1.35 2.63,2.63 0 0 1 0.16,-0.92 2,2 0 0 1 0.48,-0.75 2.2,2.2 0 0 1 0.78,-0.5 3.06,3.06 0 0 1 1.13,-0.19 2.9,2.9 0 0 1 1,0.17 2.69,2.69 0 0 1 0.79,0.45 1.72,1.72 0 0 1 0.67,1.33 z"
           transform="translate(-283.93,-261.38)" />
        <path
           id="_Compound_Path_13"
           data-name="&lt;Compound Path&gt;"
           class="cls-1"
           d="m 496.56,332.23 v -1.16 l 2.68,-4.19 a 1.36,1.36 0 0 0 0.23,-0.55 4.89,4.89 0 0 0 0,-0.59 c 0,-0.1 0,-0.21 0,-0.33 a 0.69,0.69 0 0 0 -0.08,-0.31 0.61,0.61 0 0 0 -0.22,-0.22 0.81,0.81 0 0 0 -0.42,-0.09 0.83,0.83 0 0 0 -0.53,0.16 0.55,0.55 0 0 0 -0.2,0.46 v 0.7 h -1.48 v -0.68 a 1.55,1.55 0 0 1 0.17,-0.72 1.91,1.91 0 0 1 0.48,-0.59 2.23,2.23 0 0 1 0.7,-0.4 2.49,2.49 0 0 1 0.87,-0.15 2.56,2.56 0 0 1 1,0.18 1.8,1.8 0 0 1 1.08,1.16 2.67,2.67 0 0 1 0.12,0.82 q 0,0.31 0,0.52 a 2.66,2.66 0 0 1 -0.06,0.4 1.56,1.56 0 0 1 -0.15,0.39 q -0.1,0.19 -0.28,0.47 L 498.31,331 H 501 v 1.23 z"
           transform="translate(-283.93,-261.38)" />
        <path
           id="_Compound_Path_14"
           data-name="&lt;Compound Path&gt;"
           class="cls-1"
           d="m 504.15,325.41 a 1.6,1.6 0 0 1 0.18,-0.77 1.85,1.85 0 0 1 0.49,-0.58 2.2,2.2 0 0 1 0.71,-0.37 2.82,2.82 0 0 1 1.67,0 2.21,2.21 0 0 1 0.71,0.37 1.85,1.85 0 0 1 0.49,0.58 1.6,1.6 0 0 1 0.18,0.77 v 5 a 1.6,1.6 0 0 1 -0.18,0.77 1.85,1.85 0 0 1 -0.49,0.58 2.2,2.2 0 0 1 -0.71,0.37 2.82,2.82 0 0 1 -1.67,0 2.19,2.19 0 0 1 -0.71,-0.37 1.85,1.85 0 0 1 -0.49,-0.58 1.6,1.6 0 0 1 -0.18,-0.77 z m 1.48,5 a 0.56,0.56 0 0 0 0.2,0.44 0.87,0.87 0 0 0 1,0 0.56,0.56 0 0 0 0.2,-0.44 v -5 a 0.56,0.56 0 0 0 -0.2,-0.44 0.87,0.87 0 0 0 -1,0 0.56,0.56 0 0 0 -0.2,0.44 z"
           transform="translate(-283.93,-261.38)" />
        <path
           id="_Compound_Path_15"
           data-name="&lt;Compound Path&gt;"
           class="cls-1"
           d="m 511.75,332.23 v -1.16 l 2.68,-4.19 a 1.36,1.36 0 0 0 0.23,-0.55 4.89,4.89 0 0 0 0,-0.59 c 0,-0.1 0,-0.21 0,-0.33 a 0.69,0.69 0 0 0 -0.08,-0.31 0.61,0.61 0 0 0 -0.22,-0.22 0.81,0.81 0 0 0 -0.42,-0.09 0.83,0.83 0 0 0 -0.53,0.16 0.55,0.55 0 0 0 -0.2,0.46 v 0.7 h -1.48 v -0.68 a 1.55,1.55 0 0 1 0.17,-0.72 1.91,1.91 0 0 1 0.48,-0.59 2.23,2.23 0 0 1 0.7,-0.4 2.49,2.49 0 0 1 0.87,-0.15 2.56,2.56 0 0 1 1,0.18 1.8,1.8 0 0 1 1.05,1.15 2.67,2.67 0 0 1 0.12,0.82 q 0,0.31 0,0.52 a 2.66,2.66 0 0 1 -0.06,0.4 1.56,1.56 0 0 1 -0.15,0.39 q -0.1,0.19 -0.28,0.47 l -2.14,3.5 h 2.68 v 1.23 z"
           transform="translate(-283.93,-261.38)" />
        <path
           id="_Compound_Path_16"
           data-name="&lt;Compound Path&gt;"
           class="cls-1"
           d="m 521.1,332.23 v -7.29 l -1.48,0.9 v -1.3 l 1.48,-0.9 h 1.48 v 8.59 z"
           transform="translate(-283.93,-261.38)" />
      </g>
      <path
         id="_Compound_Path_17"
         data-name="&lt;Compound Path&gt;"
         class="cls-1"
         d="M 376.45,317.94 V 287.8 h 21.92 v 5.42 h -13.89 v 8 h 11.94 v 5.42 h -11.94 v 11.31 z"
         transform="translate(-283.93,-261.38)" />
      <path
         id="_Compound_Path_18"
         data-name="&lt;Compound Path&gt;"
         class="cls-1"
         d="m 456,309.9 c 0,-4.77 -17.06,-4.13 -17.06,-13.63 0,-5 5.39,-8.9 13,-8.9 6.18,0 10,2.32 11.25,3.61 l -5,4.86 a 9.29,9.29 0 0 0 -6.92,-2.79 c -2.64,0 -4.12,1.2 -4.12,2.71 0,4.86 17,4.13 17,13.72 0,4.51 -4.6,8.9 -14,8.9 -7.13,0 -11.57,-2.58 -12.84,-3.74 l 4.6,-5.42 a 14.74,14.74 0 0 0 9.3,3.61 c 3.21,-0.01 4.79,-1.34 4.79,-2.93 z"
         transform="translate(-283.93,-261.38)" />
      <path
         id="_Compound_Path_19"
         data-name="&lt;Compound Path&gt;"
         class="cls-1"
         d="m 486.17,309.9 c 0,-4.77 -17.06,-4.13 -17.06,-13.63 0,-5 5.39,-8.9 13,-8.9 6.18,0 10,2.32 11.25,3.61 l -5,4.86 a 9.29,9.29 0 0 0 -6.92,-2.79 c -2.64,0 -4.12,1.2 -4.12,2.71 0,4.86 17,4.13 17,13.72 0,4.51 -4.6,8.9 -14,8.9 -7.13,0 -11.57,-2.58 -12.84,-3.74 l 4.6,-5.42 a 14.74,14.74 0 0 0 9.3,3.61 c 3.26,-0.01 4.79,-1.34 4.79,-2.93 z"
         transform="translate(-283.93,-261.38)" />
      <path
         id="_Compound_Path_20"
         data-name="&lt;Compound Path&gt;"
         class="cls-1"
         d="m 499.17,311.41 -1.64,-5 14.47,-18.18 h 9 v 17.89 h 4.86 v 5.29 H 521 v 6.54 h -7.66 v -6.54 z m 14.53,-16.47 c -1.11,1.76 -2.48,3.74 -3.86,5.55 l -4.28,5.63 h 7.82 v -2.36 a 62.56,62.56 0 0 1 0.53,-8.81 z"
         transform="translate(-283.93,-261.38)" />
      <path
         id="_Compound_Path_21"
         data-name="&lt;Compound Path&gt;"
         class="cls-1"
         d="m 558.5,290.85 -5.18,4.6 a 9.53,9.53 0 0 0 -6.76,-2.41 c -4.86,0 -9,2.19 -9,9.33 0,7.44 3,10.66 9.14,10.66 a 13.64,13.64 0 0 0 3.49,-0.43 v -10.18 h 8.08 v 13.29 c -2.69,1.5 -6.39,2.67 -13.26,2.67 -10.51,0 -15.74,-5.16 -15.74,-15.22 0,-10.88 7.77,-15.78 17.59,-15.78 7.3,-0.01 10.63,2.53 11.64,3.47 z"
         transform="translate(-283.93,-261.38)" />
      <path
         d="M 417.92,291.58 Z"
         transform="translate(-283.93,-261.38)"
         id="path79" />
      <path
         d="m 417.6,292.6 0.2,-0.05 c -0.05,0.09 -0.1,0.11 -0.2,0.05 z"
         transform="translate(-283.93,-261.38)"
         id="path81" />
      <path
         d="m 415.14,292.87 a 0.94,0.94 0 0 1 0.09,-0.12 l 0.09,0.09 c 0,0.06 0,0.1 -0.06,0.14 z"
         transform="translate(-283.93,-261.38)"
         id="path83" />
      <path
         d="M 413.36,293.31 Z"
         transform="translate(-283.93,-261.38)"
         id="path85" />
      <path
         class="cls-1"
         d="m 414.24,290.12 c 0,0 0,0 0,0 h -0.12 z m 0.1,-0.15 c 0,0.08 -0.08,0.14 0,0.2 h 0.09 v -0.07 -0.06 h 0.08 z m -0.15,-0.15 c 0,0.09 0.06,0.15 0.14,0.14 0.08,-0.01 -0.06,-0.11 -0.14,-0.14 z m -0.23,-0.12 a 1.83,1.83 0 0 1 0.13,0.16 c 0.08,-0.13 0.07,-0.14 -0.09,-0.16 z m -1.24,1.43 v 0 c 0,0 0,0 0.08,0 z m -0.43,-0.37 a 0.12,0.12 0 0 0 0.18,0 c 0,0 0,-0.08 0,-0.09 0,-0.01 -0.16,0 -0.18,0.09 z m 1.2,0.49 a 0.51,0.51 0 0 0 0.57,0 0.43,0.43 0 0 0 -0.57,0 z m 0,-1.31 a 1.8,1.8 0 0 0 0.2,0.18 0.23,0.23 0 0 0 -0.12,-0.33 1.09,1.09 0 0 0 -0.05,0.15 z m -0.09,-0.36 a 0.89,0.89 0 0 1 0.22,0 0.72,0.72 0 0 1 0.22,0.1 1.16,1.16 0 0 1 0.06,-0.16 c -0.07,0 -0.14,-0.07 -0.2,-0.06 a 1.86,1.86 0 0 0 -0.31,0.1 c 0,0 0.04,0 0.04,0.02 z m -0.18,1.1 c 0.16,0.19 0.34,0 0.51,0.08 l -0.11,0.14 h 0.07 l 0.59,-0.08 c 0.1,0 0.19,-0.06 0.29,-0.09 v 0 a 2.51,2.51 0 0 0 -0.55,-0.17 l -0.33,-0.12 a 0.86,0.86 0 0 0 -0.21,-0.07 1.52,1.52 0 0 1 -0.42,-0.06 0.88,0.88 0 0 0 -0.23,0 0.75,0.75 0 0 1 -0.16,0 1.19,1.19 0 0 0 -0.87,0.48 l 0.27,-0.08 c 0.1,-0.05 0.19,-0.12 0.29,-0.18 0.1,-0.06 0.21,0 0.32,0 h 0.65 c 0.08,0 0.1,0 0.09,0.12 z m 1.59,-0.42 h 0.11 v 0 h -0.11 a 0.06,0.06 0 0 0 0.03,0 z m 0.36,0 c -0.08,0 -0.13,0 -0.19,0.07 h 0.27 c 0,-0.02 0,-0.02 -0.05,-0.03 z m -0.62,0 0.2,-0.14 h -0.26 a 0.84,0.84 0 0 1 0,0.1 0.43,0.43 0 0 1 0.09,0.11 z m 0.31,0.07 -0.24,0.16 c 0.26,0.08 0.27,0.07 0.27,-0.09 z m 1,1.92 H 416 v 0 l -0.1,-0.05 v 0 z m 0.21,-1.41 a 1.24,1.24 0 0 0 -0.91,-0.19 c -0.06,0 -0.13,0 -0.17,0 -0.04,0 -0.18,0 -0.25,0.05 -0.07,0.05 0,0 0,0 l 0.15,0.05 a 1.36,1.36 0 0 1 -0.17,0.16 h -0.25 a 0.41,0.41 0 0 0 0,0.09 0.6,0.6 0 0 0 0.19,0.06 0.86,0.86 0 0 0 0.27,-0.05 0.2,0.2 0 0 1 0.29,0.12 0.51,0.51 0 0 1 0.36,-0.2 0.44,0.44 0 0 1 0.39,0 z m 1.88,1 a 0.36,0.36 0 0 1 0,-0.09 h -0.07 v 0.11 c 0,0 0.12,0.04 0.12,0.03 z m 5.31,23 c 0,0 0,0 0,0.05 0,0.05 0.09,0 0.12,-0.08 0.03,-0.08 -0.07,-0.03 -0.09,0.05 z m 3.83,-22.39 c 0,-0.15 0,-0.15 -0.13,-0.11 z m -4.57,20.77 0.13,-0.1 c -0.11,0 -0.11,0 -0.14,0.05 a 0.11,0.11 0 0 0 0.04,0.07 z m -1.32,-5.39 0.24,0.32 c 0.14,-0.15 0.07,-0.24 -0.21,-0.3 z m 6.08,-14.95 c 0,0 0,0 0,0 h -0.13 v 0 h 0.08 z m 0,-0.33 c 0,0 0,0 0,0 h -0.1 c 0,0 0,0 0,0.05 z m 0.26,0.35 -0.19,-0.07 c 0.07,0.17 0.08,0.17 0.26,0.09 z m 0.08,-0.17 v -0.05 c 0,0 0,0 0,0.05 v 0.05 z m -9.34,-0.72 c 0,0 0,0 0.06,0 l -0.08,-0.05 c 0,0 0,0 0,0.05 z m -2,-1 a 1.55,1.55 0 0 0 0.71,-0.13 c 0,0 0,0 0.05,-0.06 a 0.91,0.91 0 0 1 -0.46,0 h -0.23 c -0.02,0.09 -0.02,0.18 0.01,0.24 z m 1.78,18.54 0.39,-0.25 c 0,0 -0.06,-0.06 -0.07,-0.05 l -0.39,0.17 c 0,0 0,0 0,0.06 z m 0.07,-2.54 c 0.14,0.11 0.21,0 0.29,-0.07 l 0.1,-0.09 c -0.16,-0.17 -0.39,-0.07 -0.56,-0.16 0,0 0,0 0,0 l 0.08,0.11 c -0.09,0 -0.09,0.09 0,0.15 0.09,0.06 0.13,0.05 0.17,0.11 z m 3,5.61 a 0.19,0.19 0 0 0 0,0.07 v 0 a 0.19,0.19 0 0 0 0,-0.08 z m -1.37,-3.53 a 0.19,0.19 0 0 0 0.24,0.09 c 0,-0.03 -0.05,-0.08 -0.16,-0.04 z m 0.81,3.63 c 0,0.06 0,0.1 0,0.15 v 0 c 0,-0.09 0.12,-0.11 0.09,-0.23 z m -1.7,-3.58 c -0.05,-0.09 -0.13,-0.06 -0.19,-0.08 a 1,1 0 0 0 -0.07,0.15 z m 0.11,4 c 0,0 -0.07,-0.09 -0.12,-0.13 a 0.57,0.57 0 0 0 -0.16,0 c -0.05,0.12 -0.09,0.25 -0.14,0.36 a 0.45,0.45 0 0 1 -0.1,0.13 0.2,0.2 0 0 0 -0.1,0.22 0.84,0.84 0 0 0 0.49,-0.08 0.07,0.07 0 0 0 0,-0.05 2.1,2.1 0 0 0 0.21,-0.44 z m -1.14,-21.55 c 0,0.13 0,0.13 0.09,0.14 0.09,0.01 -0.05,-0.1 -0.09,-0.14 v 0 0 a 2.17,2.17 0 0 0 0,-0.25 h -0.09 v 0 c 0,0 -0.05,0 -0.06,0.07 -0.01,0.07 0.09,0.18 0.16,0.21 v 0 z m -0.09,0.56 c 0.07,-0.06 0.15,-0.11 0.07,-0.23 z m 0,21.27 c 0,0.21 0.16,0.27 0.36,0.28 a 0.36,0.36 0 0 0 0,-0.32 c -0.12,0 -0.08,0.19 -0.2,0.14 -0.12,-0.05 -0.08,-0.15 -0.12,-0.2 -0.04,-0.05 0,-0.15 0,-0.23 a 0.36,0.36 0 0 0 -0.23,0.2 0.2,0.2 0 0 0 0,0.13 c 0,0.05 0.09,0 0.13,0 z M 417.48,291 c 0,-0.1 0,-0.15 -0.13,-0.11 z m 0,0.08 0.12,0.06 v 0 l -0.12,-0.07 z m 0.09,22.39 a 0.16,0.16 0 0 0 -0.17,-0.15 v -0.2 c 0,0 0.1,0 0.14,0 0.04,0 0,-0.1 0.06,-0.14 0.06,-0.04 -0.24,0 -0.27,-0.15 h 0.13 c 0.1,0 0.23,0 0.28,-0.14 0.05,-0.14 0.06,0 0.09,-0.06 a 0.63,0.63 0 0 0 0.37,-0.41 0.71,0.71 0 0 0 0,-0.59 c 0,0 0,-0.11 0,-0.16 0,-0.05 0.07,-0.17 -0.07,-0.2 v -0.06 c 0,-0.11 0,-0.22 -0.16,-0.26 -0.16,-0.04 0,-0.08 0,-0.14 h -0.16 c 0,-0.08 0,-0.16 0,-0.23 0,-0.07 0.1,-0.14 0.15,-0.16 0.05,-0.02 0.21,0 0.25,-0.19 h -0.13 a 0.93,0.93 0 0 1 0,-0.13 h 0.2 v -0.14 0 a 0.44,0.44 0 0 1 0.16,0 c 0.15,0 0.17,0 0.13,-0.17 l 0.24,-0.08 c -0.1,-0.13 -0.13,-0.14 -0.26,-0.1 a 2.34,2.34 0 0 0 -0.49,0.14 v -0.07 l -0.08,-0.16 -0.71,-1.52 c 0,0 0.07,0 0.08,-0.08 0.01,-0.08 0.12,-0.19 0.25,-0.2 a 0.2,0.2 0 0 0 0.14,-0.06 h -0.08 a 0.56,0.56 0 0 1 -0.61,-0.48 c 0,0 0,-0.06 -0.05,-0.1 a 1.8,1.8 0 0 1 -0.08,-0.21 0.14,0.14 0 0 1 0.06,-0.18 0.21,0.21 0 0 0 0.12,-0.22 0.3,0.3 0 0 1 0.14,-0.23 0.22,0.22 0 0 0 0.12,-0.22 c 0,-0.09 0,-0.15 -0.12,-0.15 a 0.22,0.22 0 0 1 -0.2,-0.17 c 0,-0.08 0.07,-0.2 0.18,-0.24 h 0.13 c 0,-0.1 0,-0.21 0,-0.31 a 0.34,0.34 0 0 1 0.09,-0.15 l 0.18,-0.11 a 1,1 0 0 1 0,-0.18 h -0.22 c 0,-0.09 0,-0.17 -0.06,-0.29 l 0.18,0.06 a 0.27,0.27 0 0 0 0.37,-0.28 c 0,-0.17 0,-0.21 0.19,-0.23 a 2.33,2.33 0 0 1 0.28,-0.05 0.7,0.7 0 0 0 0.52,-0.42 c 0.06,-0.1 0,-0.16 -0.1,-0.27 0.09,-0.13 0,-0.22 -0.11,-0.31 v 0 a 0.39,0.39 0 0 1 0.16,0.07 c 0.12,0.09 0.26,0.05 0.38,0.07 0.12,0.02 0.23,-0.1 0.32,-0.21 a 2,2 0 0 0 0.28,-0.37 c 0,-0.05 0.07,-0.08 0.11,-0.1 a 0.76,0.76 0 0 0 0.34,-0.37 0.81,0.81 0 0 1 0.29,-0.32 0.35,0.35 0 0 0 0.15,-0.35 0.46,0.46 0 0 1 0.25,-0.53 l 0.23,-0.14 c 0.11,-0.06 0.24,0.1 0.36,-0.06 0.12,-0.16 0.24,-0.07 0.38,-0.06 h 0.27 c 0,0 0.05,-0.08 0.1,-0.11 a 0.59,0.59 0 0 1 0.16,-0.07 0.49,0.49 0 0 1 0.17,-0.3 c 0.1,-0.11 0.25,-0.23 0.24,-0.42 -0.01,-0.19 0.13,-0.12 0.21,-0.17 a 0.41,0.41 0 0 1 0,-0.36 0.2,0.2 0 0 0 0,-0.11 c 0,-0.19 0,-0.37 0.07,-0.56 a 0.69,0.69 0 0 0 0.39,-0.3 0.64,0.64 0 0 1 0.25,-0.21 0.87,0.87 0 0 0 0.52,-0.64 1.24,1.24 0 0 0 -0.08,-0.51 0.22,0.22 0 0 0 -0.16,-0.12 0.86,0.86 0 0 1 -0.48,-0.31 l -0.28,-0.28 a 0.76,0.76 0 0 0 -0.39,-0.16 1.39,1.39 0 0 1 -0.45,-0.14 0.45,0.45 0 0 0 -0.34,-0.07 l -0.06,-0.1 a 0.28,0.28 0 0 0 -0.22,-0.2 c -0.15,0 -0.28,-0.15 -0.43,-0.19 a 1.9,1.9 0 0 1 -0.7,-0.34 c 0,0 0,-0.06 0,-0.08 a 0.16,0.16 0 0 0 -0.06,-0.22 0.49,0.49 0 0 1 -0.22,-0.41 0.24,0.24 0 0 0 -0.09,-0.16 1.87,1.87 0 0 0 -0.4,-0.27 1.3,1.3 0 0 0 -0.75,-0.15 0.54,0.54 0 0 1 -0.39,-0.09 1.31,1.31 0 0 1 -0.31,-0.27 0.75,0.75 0 0 0 -0.49,-0.25 l -0.15,-0.23 a 2.18,2.18 0 0 0 0.06,-0.22 h -0.58 c -0.06,0 -0.13,0 -0.18,-0.05 -0.05,-0.05 -0.1,0 -0.15,0 0,0.17 -0.08,0.23 -0.22,0.22 h -0.06 a 0.82,0.82 0 0 0 -0.65,0 c -0.13,-0.18 -0.16,-0.2 -0.42,-0.2 0,-0.06 -0.05,-0.13 -0.1,-0.24 l -0.12,0.3 c -0.1,0 -0.19,0.14 -0.35,0.06 l 0.21,-0.16 a 0.19,0.19 0 0 0 -0.32,0 0.86,0.86 0 0 1 -0.43,0.23 0.84,0.84 0 0 0 -0.37,0.17 c 0,0 -0.07,0.06 -0.07,0.09 0,0.24 -0.2,0.33 -0.36,0.46 a 0.83,0.83 0 0 0 -0.16,-0.09 0.65,0.65 0 0 0 -0.35,-0.07 0.38,0.38 0 0 0 -0.24,0.08 1.16,1.16 0 0 1 -0.24,0.14 0.1,0.1 0 0 1 -0.09,0 c -0.22,-0.08 -0.49,-0.1 -0.6,-0.4 0,-0.26 0.09,-0.54 0.14,-0.84 a 0.73,0.73 0 0 0 -0.56,-0.1 c -0.24,0.07 -0.49,0.12 -0.74,0.18 h -0.05 c 0.08,-0.08 0.06,-0.2 0.14,-0.29 0.08,-0.09 0,-0.21 0.09,-0.31 a 2.47,2.47 0 0 0 0.1,-0.35 c 0.16,0 0.16,-0.14 0.14,-0.29 a 0.25,0.25 0 0 0 -0.09,0 2.44,2.44 0 0 0 -0.75,0.24 0.24,0.24 0 0 0 -0.13,0.2 0.52,0.52 0 0 1 -0.39,0.46 1.44,1.44 0 0 0 -0.31,0.13 0.65,0.65 0 0 1 -0.49,0.08 0.32,0.32 0 0 1 -0.21,-0.1 2.09,2.09 0 0 1 -0.14,-0.17 0.6,0.6 0 0 1 -0.08,-0.16 c 0,0 0,0 0,0 -0.19,-0.28 0,-0.53 0.06,-0.79 a 0.74,0.74 0 0 1 0.35,-0.41 l 1.06,-0.72 a 0.32,0.32 0 0 1 0.25,-0.07 c 0.06,0 0.12,0 0.18,0 h 0.05 c 0.07,0 0.17,0.08 0.23,-0.05 a 1.21,1.21 0 0 1 0.09,-0.2 l 0.45,-0.12 a 0.33,0.33 0 0 1 0.33,0 c 0.06,0.06 0.14,0 0.2,0 0.06,0 0.23,-0.09 0.34,0 0.11,0.09 0.06,0 0.1,0.07 0.04,0.07 0,0.06 0,0.09 a 0.18,0.18 0 0 0 0,0.24 c 0.07,0.08 0.12,0.19 0.21,0.23 a 0.25,0.25 0 0 1 0.12,0.18 l -0.19,0.08 a 0.46,0.46 0 0 0 0.49,-0.61 3.75,3.75 0 0 0 -0.05,-0.67 0.35,0.35 0 0 1 0.09,-0.47 1.66,1.66 0 0 1 0.21,-0.16 l 0.29,-0.21 0.11,-0.08 0.46,-0.17 0.47,-0.14 a 15.52,15.52 0 0 1 4.34,-0.45 15.3,15.3 0 0 1 10.03,4.3 1.32,1.32 0 0 0 0.16,0.12 0.34,0.34 0 0 0 -0.18,0.39 1.79,1.79 0 0 1 0.14,0.13 0.22,0.22 0 0 1 0,0.13 0.25,0.25 0 0 0 0,0.22 0.43,0.43 0 0 1 0,0.46 0.21,0.21 0 0 0 0,0.11 0.28,0.28 0 0 1 -0.24,0.3 0.4,0.4 0 0 1 0.16,0.44 0.24,0.24 0 0 0 0.07,0.26 c 0,0 0,0.07 0,0.12 0,0.05 0,0.1 0,0.17 0,0.07 0.24,0.08 0.31,0.18 0.07,0.1 0.2,0.29 0.3,0.45 a 0.34,0.34 0 0 1 0.05,0.14 c 0,0.11 0,0.22 0.06,0.33 0.06,0.11 0,0.05 0.05,0.07 a 4.18,4.18 0 0 1 0.67,0.85 2.52,2.52 0 0 0 0.33,0.39 0.2,0.2 0 0 0 0.14,0.06 1.52,1.52 0 0 1 1.13,0.57 l 0.47,0.05 a 0.26,0.26 0 0 1 0.23,0.22 c 0.15,0.54 0.33,1.09 0.45,1.64 a 14.8,14.8 0 0 1 0.34,4.2 c 0,0 0,0.09 0,0.13 a 0.15,0.15 0 0 1 -0.1,0.16 0.55,0.55 0 0 0 -0.27,0.23 l -0.17,0.18 a 1.15,1.15 0 0 0 -0.4,0.8 3.34,3.34 0 0 1 -0.09,0.52 c 0,0.16 -0.06,0.33 -0.1,0.5 a 0.43,0.43 0 0 1 -0.1,0.23 4.38,4.38 0 0 0 -0.24,0.43 4.17,4.17 0 0 0 -0.26,0.46 c -0.06,0.16 -0.1,0.33 -0.15,0.5 -0.05,0.17 -0.07,0.27 -0.12,0.39 -0.05,0.12 -0.14,0.35 -0.22,0.53 -0.08,0.18 -0.06,0.22 -0.22,0.21 v 0 c 0,0 -0.05,0.06 -0.05,0.08 0,0.02 -0.21,0.19 -0.16,0.36 a 0.76,0.76 0 0 1 0,0.15 0.15,0.15 0 0 0 0.09,0.18 c 0,0 0.07,0.06 0.1,0.1 0.03,0.04 0,0.08 0.07,0.09 a 0.51,0.51 0 0 1 0.24,0.38 c 0,0 0,0.08 0,0.09 0,0.01 0.07,0.18 0,0.28 a 15.39,15.39 0 0 1 -7.13,6.26 h -0.11 v 0 c -0.06,-0.08 0,-0.25 -0.17,-0.28 a 0.74,0.74 0 0 0 0.08,-0.13 H 424 l 0.09,-0.1 -0.21,-0.4 c -0.06,-0.12 -0.14,-0.23 -0.29,-0.19 a 0.35,0.35 0 0 1 0.2,-0.35 c 0.05,0 0.09,-0.06 0.06,-0.13 -0.03,-0.07 -0.1,-0.06 -0.16,0 -0.06,0.06 -0.17,0 -0.27,-0.11 a 1.71,1.71 0 0 0 -0.18,-0.2 c -0.06,-0.08 -0.06,-0.11 0,-0.16 0.06,-0.05 0.1,-0.07 0,-0.14 -0.1,-0.07 0,-0.08 0,-0.12 l -0.19,-0.07 0.22,-0.12 -0.16,-0.09 0.08,-0.08 0.1,0.06 c -0.05,-0.19 -0.05,-0.19 -0.19,-0.14 -0.14,0.05 -0.05,-0.07 0,-0.08 a 0.22,0.22 0 0 0 -0.05,-0.22 1.4,1.4 0 0 0 -0.38,-0.46 c -0.06,0 -0.1,-0.06 -0.17,0 -0.07,0.06 -0.19,0 -0.25,-0.13 l 0.19,-0.18 a 0.12,0.12 0 0 0 -0.2,0 c -0.07,0.05 -0.07,0.05 -0.16,0 l 0.13,-0.17 c -0.06,-0.07 -0.17,0.05 -0.17,-0.1 l -0.14,0.13 c 0,-0.07 0,-0.12 0,-0.17 0,-0.05 -0.12,0 -0.15,0 -0.03,0 -0.13,0 -0.13,0.06 0,0.06 -0.07,0.12 -0.16,0.12 h -0.22 a 0.21,0.21 0 0 0 -0.25,0.15 1.55,1.55 0 0 0 -0.23,0.08 0.31,0.31 0 0 1 -0.28,0 1.16,1.16 0 0 0 -0.86,0.06 0.35,0.35 0 0 0 -0.27,0.29 c 0,0 0,0.05 -0.06,0.08 l 0.15,0.09 v 0.16 a 1,1 0 0 1 -0.3,0.05 0.3,0.3 0 0 0 -0.29,0.13 l -0.05,0.08 c -0.13,-0.16 -0.36,-0.12 -0.54,0.13 -0.13,0 0,-0.11 0,-0.18 h -0.11 l 0.05,-0.09 -0.39,-0.2 a 0.47,0.47 0 0 0 -0.14,0.05 c -0.07,-0.16 -0.13,-0.21 -0.13,-0.27 z"
         transform="translate(-283.93,-261.38)"
         id="path87" />
      <path
         class="cls-1"
         d="m 410.89,296.08 0.08,-0.1 v 0 l -0.09,0.08 z m -0.24,-0.25 v 0 l -0.1,-0.06 v 0 0 z m -0.23,0.37 a 0.18,0.18 0 0 0 0.18,-0.09 c 0,-0.05 0.16,0 0.13,-0.14 l -0.33,-0.07 c -0.12,0.1 -0.02,0.2 0.02,0.3 z m 5.19,19.47 h -0.08 v 0.11 h 0.06 z m -0.33,0.37 c 0.13,0.09 0.13,0.09 0.33,0 0,-0.05 0,-0.11 0,-0.18 a 0.32,0.32 0 0 0 -0.33,0.14 z m 1.75,-4.72 c 0,0 0,0 -0.06,-0.07 a 0.31,0.31 0 0 0 -0.09,0.07 c 0,0 0,0.06 0.07,0.1 0.07,0.04 0.05,-0.07 0.05,-0.1 z m -8.94,-18.51 c 0.23,0 0.47,0 0.71,0 a 0.62,0.62 0 0 0 0.42,-0.15 0.47,0.47 0 0 1 0.56,0 l 0.3,0.16 a 0.35,0.35 0 0 0 0.2,0 c 0.18,-0.06 0.35,0 0.52,0 0.17,0 0.07,0 0.09,0 0.29,-0.08 0.45,0.15 0.65,0.26 0,0 0.05,0.1 0.06,0.15 0.01,0.05 0.09,0.2 0.21,0.17 a 0.75,0.75 0 0 1 0.33,0 c 0,0.09 0,0.12 0.09,0.15 0.09,0.03 0.27,0 0.41,0 0.14,0 0,0.12 0,0.21 l 0.12,-0.13 c 0.13,0.11 0.25,0.07 0.37,-0.05 l -0.08,-0.12 0.18,-0.17 h 0.13 v 0 a 0.69,0.69 0 0 0 0,0.13 c 0.1,0 0.1,0 0,-0.13 -0.1,-0.13 0.09,0 0.1,0.07 0.01,0.07 0.13,0.21 0.21,0.3 a 0.24,0.24 0 0 1 0.06,0.11 c 0,0.15 0,0.29 0,0.43 a 1.13,1.13 0 0 0 0,0.15 c 0,0.05 -0.07,0.1 -0.09,0.16 -0.02,0.06 -0.11,0 -0.14,0.06 -0.03,0.06 -0.12,0.16 -0.14,0.26 a 0.29,0.29 0 0 1 -0.18,0.19 0.09,0.09 0 0 0 -0.06,0.07 1.51,1.51 0 0 1 -0.15,0.37 0.24,0.24 0 0 0 0,0.2 v 0.17 l 0.19,0.14 c -0.08,0.1 -0.15,0.18 -0.21,0.27 a 0.15,0.15 0 0 0 0,0.19 c 0,0.07 0.1,0.13 0.06,0.24 a 0.26,0.26 0 0 0 0.12,0.11 0.41,0.41 0 0 1 0.29,0.18 5.23,5.23 0 0 1 0.55,0.78 c 0.1,0.13 0.22,0.25 0.32,0.38 a 0.2,0.2 0 0 1 0.06,0.09 c -0.06,0.15 0.06,0.2 0.14,0.27 a 1.62,1.62 0 0 0 0.57,0.29 1.77,1.77 0 0 1 0.38,0.15 1,1 0 0 1 0.33,0.23 0.58,0.58 0 0 1 0.1,0.32 5.09,5.09 0 0 1 0,0.56 c 0,0 0,0 0,0.06 a 1.3,1.3 0 0 0 0,0.62 3.24,3.24 0 0 1 -0.05,0.62 2.56,2.56 0 0 1 0,0.27 v 0 c 0.12,0.2 -0.06,0.41 0,0.61 a 1,1 0 0 1 0,0.61 l -0.12,0.57 a 0.16,0.16 0 0 1 0,0.09 0.29,0.29 0 0 0 0,0.34 c 0,0 0,0.06 0,0.09 0,0.03 0.19,0.2 0.1,0.35 a 0.28,0.28 0 0 0 0,0.09 v 0.81 l 0.22,-0.08 a 0.27,0.27 0 0 0 0,0.08 h -0.16 l -0.14,0.31 0.1,0.06 c 0,0.1 -0.06,0.21 -0.08,0.32 a 0.45,0.45 0 0 0 0,0.12 0.34,0.34 0 0 1 0.1,0 0.11,0.11 0 0 1 0.08,0 0.09,0.09 0 0 1 0,0.07 c -0.21,0.16 -0.09,0.36 -0.05,0.55 a 2.64,2.64 0 0 0 0.15,0.45 1.44,1.44 0 0 0 0.28,0.43 1.84,1.84 0 0 0 0.71,0.39 c 0.07,0 0.16,0 0.25,0.05 v 0 l 0.71,1.52 c 0,0.11 0,0.14 0.08,0.16 v 0.07 c -0.12,0.07 -0.32,0.09 -0.31,0.3 a 0.05,0.05 0 0 1 0,0.05 c -0.18,0.09 -0.19,0.3 -0.33,0.42 -0.14,0.12 0,0 0,0.05 0,0.05 0,0.19 0.15,0.21 a 0.26,0.26 0 0 1 -0.1,0.3 c -0.07,0 -0.07,-0.12 -0.17,-0.1 -0.1,0.02 -0.12,0.13 -0.15,0.21 l 0.16,0.3 h -0.12 c 0,-0.12 -0.06,-0.14 -0.13,-0.08 l -0.14,0.11 c 0.07,0.14 0.14,0 0.21,0 0.07,0 -0.05,0 -0.05,0.08 0,0.08 0,0.1 0,0.11 a 1,1 0 0 0 0.3,0.12 c 0.15,0 0.21,0 0.29,-0.22 0,0.19 0,0.27 -0.2,0.27 a 0.83,0.83 0 0 0 -0.15,0 l -0.19,-0.07 -0.08,0.17 v 0 -0.16 h -0.17 c 0.06,0.15 -0.14,0.23 -0.05,0.4 -0.17,0 -0.32,-0.05 -0.46,-0.09 a 0.52,0.52 0 0 0 -0.33,0.07 c -0.1,0 -0.19,0.09 -0.29,0 h -0.07 a 0.45,0.45 0 0 0 -0.37,0.29 c 0,0.06 0.17,-0.06 0.19,0.08 l -0.18,0.06 0.27,0.29 v 0 a 0.45,0.45 0 0 0 0,0.08 h 0.24 c -0.23,0 -0.25,0.3 -0.47,0.32 -0.22,0.02 -0.13,-0.18 -0.27,-0.05 l 0.07,0.12 -0.18,-0.1 a 0.33,0.33 0 0 0 -0.15,0.36 c 0,0 0,0.07 0,0.12 0,0.05 0.05,-0.18 -0.07,-0.26 l -0.26,0.28 h -0.11 c 0,0 -0.05,0 -0.05,0.07 a 0.12,0.12 0 0 0 0.05,0.07 h 0.11 a 0.73,0.73 0 0 0 0.33,-0.19 c -0.06,0.12 -0.11,0.26 -0.3,0.26 a 0.85,0.85 0 0 0 0.11,0.14 h -0.05 -0.2 v 0 l 0.14,0.1 c -0.1,0.05 -0.09,0.12 -0.05,0.22 a 1.16,1.16 0 0 1 0.05,0.52 c 0.14,0.11 0.19,0.33 0.39,0.34 0,0.13 0,0.24 0,0.36 a 0.6,0.6 0 0 0 0.35,0 c 0.09,-0.06 0.2,-0.08 0.26,-0.19 a 0.19,0.19 0 0 1 0.09,-0.09 h 0.3 c 0,0.06 0.06,0.15 0.09,0.26 l 0.14,-0.1 v 0 l -0.09,0.13 c -0.05,0.07 0,0.12 0,0.14 l 0.21,-0.34 0.27,0.17 -0.19,0.08 c 0.16,0 0.19,0.1 0.14,0.2 -0.05,0.1 0,0.07 0,0.14 0.12,-0.17 0.21,-0.32 0.38,-0.35 0,0.07 0,0.16 0,0.26 a 0.76,0.76 0 0 1 0,0.15 4.18,4.18 0 0 1 -0.19,0.6 0.71,0.71 0 0 1 -0.38,0.34 0.25,0.25 0 0 1 -0.3,-0.09 l -0.36,0.07 v 0.17 l 0.25,-0.1 a 0.39,0.39 0 0 1 -0.16,0.25 2.15,2.15 0 0 1 -0.24,0.18 0.16,0.16 0 0 1 -0.12,0 2.23,2.23 0 0 1 -0.57,-0.12 4.21,4.21 0 0 0 -0.51,-0.12 15.38,15.38 0 0 1 -10.78,-10.84 c 0,-0.16 -0.06,-0.31 -0.11,-0.46 a 3.78,3.78 0 0 1 -0.1,-0.46 c 0,-0.16 -0.07,-0.33 -0.1,-0.49 -0.03,-0.16 -0.05,-0.32 -0.07,-0.48 -0.02,-0.16 0,-0.32 -0.05,-0.47 -0.05,-0.15 0,-0.33 0,-0.5 A 15.22,15.22 0 0 1 406.44,293 l 0.31,-0.36 v -0.06 l 0.52,0.18 a 0.49,0.49 0 0 0 0.24,0 0.41,0.41 0 0 1 0.22,0 1.66,1.66 0 0 0 0.36,0.05 z"
         transform="translate(-283.93,-261.38)"
         id="path89" />
    </g>
    <g
       id="g238"
       transform="matrix(0.14907992,0,0,0.2106136,125.45049,0)">
	<g
   id="g174">
		<path
   class="st0"
   d="M 68.3,83.4 C 62.9,79.7 56.6,77.7 50,77.7 41.3,77.7 33.1,80.9 27.1,86.8 23.9,90 21.4,93.7 19.8,98 l -0.7,1.7 h 14.1 l 0.4,-0.6 C 34.3,98 35.2,96.9 36.2,96 v 0 c 3.6,-3.5 8.5,-5.5 13.9,-5.5 6.5,0 12.5,3.2 16.2,8.6 l 0.4,0.5 H 80.9 L 80,98 C 77.6,92.1 73.5,87.1 68.3,83.4 Z"
   id="path166" />

		<path
   class="st0"
   d="M 12.9,27.2 C 9.7,24 6,21.5 1.7,19.9 L 0,19.2 v 14.1 l 0.6,0.4 c 1.1,0.7 2.2,1.6 3.1,2.6 3.5,3.6 5.5,8.5 5.5,13.9 0,6.5 -3.2,12.5 -8.6,16.2 L 0,66.7 V 80.9 L 1.7,80.2 C 7.6,77.8 12.7,73.7 16.3,68.5 20,63 22,56.7 22,50.1 22,41.4 18.8,33.2 12.9,27.2 Z"
   id="path168" />

		<path
   class="st0"
   d="m 31.7,16.6 c 5.4,3.7 11.7,5.7 18.3,5.7 8.7,0 16.9,-3.2 22.9,-9.1 C 76.1,10 78.6,6.3 80.2,2 L 80.9,0.3 H 66.8 L 66.4,0.9 C 65.7,2 64.8,3 63.9,4 V 4 C 60.3,7.5 55.3,9.4 50,9.4 43.5,9.4 37.5,6.2 33.8,0.8 L 33.4,0.3 H 19.2 L 19.9,2 c 2.4,5.9 6.5,11 11.8,14.6 z"
   id="path170" />

		<path
   class="st0"
   d="m 99.4,33.8 0.5,-0.4 V 19.2 l -1.7,0.7 c -5.9,2.4 -11,6.5 -14.6,11.7 -3.7,5.4 -5.7,11.8 -5.7,18.4 0,8.7 3.2,16.9 9.1,22.9 3.2,3.2 6.9,5.7 11.2,7.3 l 1.7,0.7 V 66.8 L 99.3,66.4 C 98.2,65.7 97.1,64.8 96.2,63.8 92.7,60.2 90.7,55.3 90.7,49.9 90.8,43.5 94,37.4 99.4,33.8 Z"
   id="path172" />

	</g>

	<circle
   class="st0"
   cx="49.799999"
   cy="50.099998"
   r="12.9"
   id="circle176" />

	<g
   id="g204">
		<path
   class="st0"
   d="m 140.1,29.9 c -1.7,-1.8 -2.6,-4 -2.6,-6.7 v -23 h -8 v 23 c 0,4.7 1.6,8.7 4.8,11.8 3.2,3.2 7.2,4.8 12,4.8 4.8,0 8.9,-1.6 12,-4.8 3.2,-3.2 4.8,-7.1 4.8,-11.8 v -23 h -8 v 23 c 0,2.6 -0.9,4.9 -2.6,6.7 -1.7,1.8 -3.8,2.7 -6.2,2.7 -2.4,0 -4.5,-0.9 -6.2,-2.7 z"
   id="path178" />

		<path
   class="st0"
   d="m 188.4,19.9 c 1,1 1.5,2.4 1.5,4.2 V 39 h 7.2 V 23.2 c 0,-3.6 -1,-6.5 -2.9,-8.6 -1.9,-2.1 -4.5,-3.2 -7.5,-3.2 -1.5,0 -2.9,0.4 -4.2,1.1 -1.3,0.7 -2.2,1.3 -2.6,1.7 -0.4,0.4 -0.7,0.8 -0.9,1.1 l -0.3,0.4 V 12 h -7.2 v 27 h 7.2 V 25 c 0,-2.1 0.5,-3.7 1.6,-4.9 1,-1.1 2.4,-1.7 4.2,-1.7 1.5,-0.1 2.9,0.5 3.9,1.5 z"
   id="path180" />

		<path
   class="st0"
   d="m 208.4,8 c 1.3,0 2.4,-0.4 3.1,-1.1 0.8,-0.7 1.1,-1.7 1.1,-2.9 0,-1.2 -0.4,-2.2 -1.1,-2.9 -0.8,-0.7 -1.8,-1.1 -3.1,-1.1 -1.2,0 -2.2,0.4 -2.9,1.1 -0.7,0.7 -1.1,1.7 -1.1,2.9 0,1.2 0.4,2.2 1.1,2.9 0.7,0.8 1.6,1.1 2.9,1.1 z"
   id="path182" />

		<rect
   x="204.89999"
   y="12"
   class="st0"
   width="7.1999998"
   height="27"
   id="rect184" />

		<polygon
   class="st0"
   points="237.2,12 230.6,30.4 230.5,30 224.1,12 216.7,12 226.9,39 234.4,39 244.6,12 "
   id="polygon186" />

		<path
   class="st0"
   d="m 265.6,39 c 1.3,-0.3 2.4,-0.7 3.2,-1.1 0.8,-0.4 1.6,-0.9 2.3,-1.4 0.7,-0.5 1.2,-0.9 1.4,-1.1 l 0.4,-0.4 -3.7,-4.7 -0.7,0.7 c -0.5,0.6 -1.3,1.1 -2.6,1.7 -1.2,0.6 -2.6,0.8 -4,0.8 -2,0 -3.7,-0.5 -5,-1.6 -1.3,-1 -2.1,-2.3 -2.4,-3.9 v -0.2 h 19.8 l 0.3,-2.9 c 0,-3.8 -1.3,-7.1 -3.8,-9.6 -2.5,-2.6 -5.8,-3.9 -9.6,-3.9 -3.8,0 -7.2,1.4 -9.9,4.1 -2.7,2.7 -4.1,6.1 -4.1,9.9 0,3.8 1.4,7.2 4.2,9.9 2.8,2.7 6.2,4.1 10.1,4.1 1.4,0.1 2.8,-0.1 4.1,-0.4 z M 254.7,22.6 c 0.5,-1.5 1.3,-2.8 2.4,-3.7 1.1,-0.9 2.5,-1.4 4.2,-1.4 1.7,0 3,0.5 4.2,1.5 1.1,1 1.8,2.2 2.1,3.7 v 0.2 h -13 z"
   id="path188" />

		<path
   class="st0"
   d="m 296.7,18.8 v -7.1 h -0.9 c -1.5,0 -2.9,0.3 -4.2,1 -1.3,0.7 -2.2,1.2 -2.6,1.6 -0.4,0.4 -0.7,0.7 -0.9,1 l -0.3,0.3 V 12 h -7.2 v 27 h 7.2 V 26 c 0,-2.4 0.6,-4.2 1.8,-5.5 1.2,-1.3 2.8,-1.9 4.8,-1.9 1,0 1.8,0.1 2.3,0.2 z"
   id="path190" />

		<path
   class="st0"
   d="m 319.4,26.9 c -0.8,-1.1 -1.9,-1.9 -3.1,-2.4 -1.2,-0.5 -2.5,-1 -3.7,-1.3 -1.2,-0.4 -2.3,-0.8 -3.1,-1.3 -0.9,-0.5 -1.4,-1.2 -1.4,-1.9 0,-0.6 0.3,-1.2 1,-1.7 0.6,-0.5 1.5,-0.7 2.5,-0.7 0.8,0 1.7,0.2 2.5,0.6 0.8,0.4 1.3,0.8 1.6,1 0.2,0.2 0.3,0.3 0.4,0.5 l 3.7,-4.2 -0.9,-1 c -0.6,-0.6 -1.7,-1.3 -3.3,-2 -1.6,-0.7 -3.3,-1 -5.1,-1 -2.9,0 -5.4,0.9 -7.4,2.6 -2,1.7 -3,3.7 -3,5.8 0,1.6 0.4,3 1.2,4.1 0.8,1.1 1.9,1.9 3.1,2.4 1.2,0.5 2.5,1 3.7,1.3 1.3,0.4 2.3,0.8 3.2,1.3 0.9,0.5 1.4,1.2 1.4,2 0,0.8 -0.3,1.5 -1,1.9 -0.6,0.5 -1.6,0.7 -2.8,0.7 -1.1,0 -2.2,-0.3 -3.2,-0.9 -1,-0.6 -1.7,-1 -2,-1.4 -0.2,-0.3 -0.4,-0.5 -0.6,-0.7 l -4,3.9 0.3,0.5 c 0.3,0.3 0.7,0.7 1.3,1.2 0.6,0.5 1.3,1 2.1,1.4 0.8,0.5 1.9,0.9 3.1,1.2 1.3,0.3 2.7,0.5 4.1,0.5 3.3,0 6,-0.8 7.9,-2.4 1.9,-1.6 2.8,-3.6 2.8,-6 -0.1,-1.5 -0.5,-2.9 -1.3,-4 z"
   id="path192" />

		<path
   class="st0"
   d="m 330.2,8 c 1.3,0 2.4,-0.4 3.1,-1.1 0.8,-0.7 1.1,-1.7 1.1,-2.9 0,-1.2 -0.4,-2.2 -1.1,-2.9 C 332.5,0.4 331.5,0 330.2,0 329,0 328,0.4 327.3,1.1 c -0.7,0.7 -1.1,1.7 -1.1,2.9 0,1.2 0.4,2.2 1.1,2.9 0.7,0.8 1.7,1.1 2.9,1.1 z"
   id="path194" />

		<rect
   x="326.79999"
   y="12"
   class="st0"
   width="7.1999998"
   height="27"
   id="rect196" />

		<path
   class="st0"
   d="m 355,33.2 c -1,0 -1.8,-0.3 -2.5,-0.9 -0.7,-0.6 -1,-1.4 -1,-2.3 V 19 h 5.6 v -6.4 h -5.6 V 3.9 h -6.4 v 4.8 c 0,1.1 -0.3,2 -0.9,2.7 -0.6,0.7 -1.4,1.1 -2.3,1.1 h -2.3 v 6.4 h 4.7 v 11.3 c 0,6.3 2.8,9.3 8.5,9.3 0.1,0 0.1,0 0.2,0 1.7,0 3.3,-0.3 4.7,-0.8 v -6.1 h -0.1 c -0.2,0.1 -0.6,0.2 -1.1,0.3 -0.5,0.2 -1,0.3 -1.5,0.3 z"
   id="path198" />

		<path
   class="st0"
   d="m 374.5,11.4 c -3.8,0 -7.2,1.4 -9.9,4.1 -2.7,2.7 -4.1,6.1 -4.1,9.9 0,3.8 1.4,7.2 4.2,9.9 2.8,2.7 6.2,4.1 10.1,4.1 1.4,0 2.8,-0.2 4.1,-0.5 1.3,-0.3 2.4,-0.7 3.2,-1.1 0.8,-0.4 1.6,-0.9 2.3,-1.4 0.7,-0.5 1.2,-0.9 1.4,-1.1 l 0.4,-0.4 -3.7,-4.7 -0.7,0.7 c -0.5,0.6 -1.4,1.1 -2.6,1.7 -1.2,0.6 -2.6,0.8 -4,0.8 -2,0 -3.7,-0.5 -5,-1.6 -1.3,-1 -2.1,-2.3 -2.4,-3.9 v -0.2 h 19.8 l 0.3,-2.9 c 0,-3.8 -1.3,-7.1 -3.8,-9.6 -2.5,-2.5 -5.8,-3.8 -9.6,-3.8 z m -6.6,11.5 0.1,-0.2 c 0.5,-1.5 1.3,-2.8 2.4,-3.7 1.1,-0.9 2.5,-1.4 4.2,-1.4 1.7,0 3,0.5 4.2,1.5 1.1,1 1.8,2.2 2.1,3.7 V 23 h -13 z"
   id="path200" />

		<polygon
   class="st0"
   points="376.3,0 372,8 377.8,8 383.6,0 "
   id="polygon202" />

	</g>

	<g
   id="g236">
		<path
   class="st0"
   d="m 157.4,90.2 v 0 l -0.9,0.8 c -0.6,0.5 -1.6,1.1 -3.1,1.6 -1.5,0.5 -3.1,0.8 -4.8,0.8 -3.7,0 -6.8,-1.3 -9.3,-3.7 -2.5,-2.5 -3.7,-5.6 -3.7,-9.3 0,-3.7 1.3,-6.8 3.7,-9.3 2.5,-2.5 5.6,-3.7 9.3,-3.7 1.3,0 2.7,0.2 3.9,0.6 1.3,0.4 2.3,0.9 3.1,1.3 0.8,0.5 1.5,1.1 2.2,1.7 0.7,0.6 1.1,1.1 1.3,1.4 l 0.1,0.1 c 0.1,0.1 0.2,0.3 0.3,0.4 l 5.1,-5.1 -0.5,-0.7 c -0.4,-0.5 -1,-1.2 -1.9,-1.9 -0.9,-0.8 -2,-1.5 -3.1,-2.3 -1.2,-0.7 -2.7,-1.4 -4.5,-1.9 -1.8,-0.5 -3.8,-0.8 -5.8,-0.8 -5.9,0 -10.9,2 -14.9,5.9 -4,3.9 -6.1,8.7 -6.1,14.2 0,5.5 2,10.3 6.1,14.3 4,3.9 9.1,5.9 14.9,5.9 2,0 4.1,-0.3 6,-0.8 1.9,-0.5 3.5,-1.1 4.7,-1.8 1.2,-0.7 2.3,-1.4 3.4,-2.3 1.1,-0.9 1.8,-1.5 2.1,-1.8 0.3,-0.3 0.5,-0.6 0.6,-0.7 V 78.9 h -15 v 5.8 h 7 v 5.5 z"
   id="path206" />

		<path
   class="st0"
   d="m 181.9,92.1 c -1,-1 -1.6,-2.3 -1.6,-3.9 V 72.7 h -7.2 v 16.2 c 0,3.4 1,6.2 2.9,8.3 1.9,2 4.4,3.1 7.5,3.1 1.5,0 2.9,-0.3 4.2,-0.9 1.3,-0.6 2.2,-1.1 2.6,-1.4 0.4,-0.4 0.7,-0.7 0.9,-0.9 l 0.3,-0.3 v 3.1 h 7.2 v -27 h -7.2 v 14.3 c 0,2.1 -0.5,3.7 -1.6,4.8 -1,1.1 -2.4,1.7 -4.2,1.7 -1.4,-0.1 -2.8,-0.6 -3.8,-1.6 z"
   id="path208" />

		<path
   class="st0"
   d="m 221.7,85.2 c -1.2,-0.5 -2.5,-1 -3.7,-1.3 -1.2,-0.4 -2.3,-0.8 -3.1,-1.3 -0.9,-0.5 -1.4,-1.2 -1.4,-1.9 0,-0.6 0.3,-1.2 1,-1.7 0.6,-0.5 1.5,-0.7 2.5,-0.7 0.8,0 1.7,0.2 2.5,0.6 0.8,0.4 1.3,0.8 1.6,1 0.2,0.2 0.3,0.3 0.4,0.5 l 3.7,-4.2 -0.9,-1 c -0.6,-0.6 -1.7,-1.3 -3.3,-2 -1.6,-0.7 -3.3,-1 -5.1,-1 -2.9,0 -5.4,0.9 -7.4,2.6 -2,1.7 -3,3.7 -3,5.8 0,1.6 0.4,3 1.2,4.1 0.8,1.1 1.9,1.9 3.1,2.4 1.2,0.5 2.5,1 3.7,1.3 1.3,0.4 2.3,0.8 3.2,1.3 0.9,0.5 1.4,1.2 1.4,2 0,0.8 -0.3,1.5 -1,1.9 -0.6,0.5 -1.6,0.7 -2.8,0.7 -1.1,0 -2.2,-0.3 -3.2,-0.9 -1,-0.6 -1.7,-1 -2,-1.4 -0.2,-0.3 -0.4,-0.5 -0.6,-0.7 l -4,3.9 0.3,0.5 c 0.3,0.3 0.7,0.7 1.3,1.2 0.6,0.5 1.3,1 2.1,1.4 0.8,0.5 1.9,0.9 3.1,1.2 1.3,0.3 2.7,0.5 4.1,0.5 3.3,0 6,-0.8 7.9,-2.4 1.9,-1.6 2.8,-3.6 2.8,-6 0,-1.7 -0.4,-3.1 -1.2,-4.2 -1,-0.9 -2,-1.7 -3.2,-2.2 z"
   id="path210" />

		<path
   class="st0"
   d="m 242.6,93 c -0.7,-0.6 -1,-1.4 -1,-2.3 v -11 h 5.6 v -6.4 h -5.6 v -8.6 h -6.4 v 4.8 c 0,1.1 -0.3,2 -0.9,2.7 -0.6,0.7 -1.4,1.1 -2.3,1.1 h -2.3 v 6.4 h 4.7 V 91 c 0,6.3 2.8,9.3 8.5,9.3 0.1,0 0.1,0 0.2,0 1.7,0 3.3,-0.3 4.7,-0.8 v -6.1 h -0.1 c -0.2,0.1 -0.6,0.2 -1.1,0.3 -0.5,0.1 -1,0.2 -1.5,0.2 -1,0 -1.9,-0.3 -2.5,-0.9 z"
   id="path212" />

		<path
   class="st0"
   d="m 264,72.2 c -1.3,0 -2.6,0.2 -3.8,0.6 -1.2,0.4 -2.3,0.8 -3,1.3 -0.7,0.4 -1.5,1 -2.1,1.6 -0.7,0.6 -1.1,1 -1.3,1.2 V 77 c -0.1,0.2 -0.2,0.3 -0.3,0.4 l 3.9,3.9 0.5,-0.5 c 0.4,-0.5 1.2,-1 2.2,-1.5 1,-0.5 2.2,-0.7 3.4,-0.7 1.5,0 2.7,0.4 3.6,1.1 0.9,0.8 1.3,1.7 1.3,2.9 v 0.1 h -0.1 l -8.7,1.6 c -2.5,0.4 -4.4,1.4 -5.8,2.9 -1.4,1.4 -2.1,3.3 -2.1,5.5 0,2.1 0.8,3.9 2.5,5.4 1.7,1.5 3.9,2.2 6.5,2.2 1.4,0 2.7,-0.3 4,-0.9 1.3,-0.6 2.1,-1.1 2.5,-1.4 0.4,-0.4 0.7,-0.7 0.9,-0.9 l 0.3,-0.4 v 3.1 h 7.2 V 82.9 c 0,-3.1 -1.1,-5.6 -3.2,-7.6 -2.2,-2.1 -5,-3.1 -8.4,-3.1 z m 4.4,16 c 0,2 -0.5,3.5 -1.6,4.6 -1,1.1 -2.4,1.7 -4.2,1.7 -2.5,0 -3.8,-1 -3.8,-2.9 0,-1.8 1.1,-2.9 3.2,-3.2 l 6.3,-1.2 v 1 z"
   id="path214" />

		<polygon
   class="st0"
   points="293.6,90.8 287.3,72.7 279.8,72.7 290,99.7 297.6,99.7 307.7,72.7 300.3,72.7 293.8,91.2 "
   id="polygon216" />

		<path
   class="st0"
   d="m 324.4,72.2 c -3.8,0 -7.2,1.4 -9.9,4.1 -2.7,2.7 -4.1,6.1 -4.1,9.9 0,3.8 1.4,7.2 4.2,9.9 2.8,2.7 6.2,4.1 10.1,4.1 1.4,0 2.8,-0.2 4.1,-0.5 1.3,-0.3 2.4,-0.7 3.2,-1.1 0.8,-0.4 1.6,-0.9 2.3,-1.4 0.8,-0.6 1.2,-0.9 1.4,-1.1 l 0.4,-0.4 -3.7,-4.7 -0.7,0.7 c -0.5,0.6 -1.4,1.1 -2.6,1.7 -1.2,0.6 -2.6,0.8 -4,0.8 -2,0 -3.7,-0.5 -5,-1.6 -1.3,-1 -2.1,-2.3 -2.4,-3.9 v -0.2 h 19.8 l 0.3,-2.9 c 0,-3.8 -1.3,-7.1 -3.8,-9.6 -2.5,-2.5 -5.8,-3.8 -9.6,-3.8 z m -6.7,11.4 0.1,-0.2 c 0.5,-1.5 1.3,-2.8 2.4,-3.7 1.1,-0.9 2.5,-1.4 4.2,-1.4 1.7,0 3,0.5 4.2,1.5 1.1,1 1.8,2.2 2.1,3.7 v 0.2 h -13 z"
   id="path218" />

		<polygon
   class="st0"
   points="356.8,99.7 385.7,99.7 385.7,92.6 364.8,92.6 364.8,83.6 380.7,83.6 380.7,76.4 364.8,76.4 364.8,68.2 385.2,68.2 385.2,61 356.8,61 "
   id="polygon220" />

		<rect
   x="392.39999"
   y="72.699997"
   class="st0"
   width="7.1999998"
   height="27"
   id="rect222" />

		<path
   class="st0"
   d="m 395.9,60.8 c -1.2,0 -2.2,0.4 -2.9,1.1 -0.7,0.7 -1.1,1.7 -1.1,2.9 0,1.2 0.4,2.2 1.1,2.9 0.7,0.7 1.7,1.1 2.9,1.1 1.3,0 2.4,-0.4 3.1,-1.1 0.8,-0.7 1.1,-1.7 1.1,-2.9 0,-1.2 -0.4,-2.2 -1.1,-2.9 -0.7,-0.8 -1.8,-1.1 -3.1,-1.1 z"
   id="path224" />

		<path
   class="st0"
   d="m 399,67.7 c -0.8,0.7 -1.8,1.1 -3.1,1.1 -1.2,0 -2.2,-0.4 -2.9,-1.1 -0.7,-0.7 -1.1,-1.7 -1.1,-2.9 0,-1.2 0.4,-2.2 1.1,-2.9 0.7,-0.7 1.7,-1.1 2.9,-1.1 1.3,0 2.4,0.4 3.1,1.1 0.8,0.7 1.1,1.7 1.1,2.9 0.1,1.2 -0.3,2.2 -1.1,2.9 z"
   id="path226" />

		<path
   class="st0"
   d="m 420,60.7 c -0.8,-0.1 -1.7,-0.2 -2.4,-0.2 -5.7,0 -8.5,3 -8.5,9.3 v 3.8 h -3.9 V 80 h 3.9 v 19.8 h 7.2 V 79.9 h 6.1 v -6.4 h -6.1 V 70 c 0,-0.9 0.3,-1.7 1,-2.3 0.7,-0.6 1.5,-0.9 2.5,-0.9 1,0 1.9,0.2 2.6,0.5 v -6 l -0.5,-0.2 c -0.4,-0.1 -1,-0.3 -1.9,-0.4 z"
   id="path228" />

		<path
   class="st0"
   d="m 440.4,60.7 c -0.8,-0.1 -1.7,-0.2 -2.4,-0.2 -5.7,0 -8.5,3 -8.5,9.3 v 3.8 h -3.9 V 80 h 3.9 v 19.8 h 7.2 V 79.9 h 6.1 v -6.4 h -6.1 V 70 c 0,-0.9 0.3,-1.7 1,-2.3 0.7,-0.6 1.5,-0.9 2.5,-0.9 1,0 1.9,0.2 2.6,0.5 v -6 l -0.5,-0.2 c -0.5,-0.1 -1.1,-0.3 -1.9,-0.4 z"
   id="path230" />

		<path
   class="st0"
   d="m 460.5,72.2 c -3.8,0 -7.2,1.4 -9.9,4.1 -2.7,2.7 -4.1,6.1 -4.1,9.9 0,3.8 1.4,7.2 4.2,9.9 2.8,2.7 6.2,4.1 10.1,4.1 1.4,0 2.8,-0.2 4.1,-0.5 1.3,-0.3 2.4,-0.7 3.2,-1.1 0.8,-0.4 1.6,-0.9 2.3,-1.4 0.8,-0.6 1.2,-0.9 1.4,-1.1 l 0.4,-0.4 -3.7,-4.7 -0.7,0.7 c -0.5,0.6 -1.4,1.1 -2.6,1.7 -1.2,0.6 -2.6,0.8 -4,0.8 -2,0 -3.7,-0.5 -5,-1.6 -1.3,-1 -2.1,-2.3 -2.4,-3.9 v -0.2 h 19.8 l 0.3,-2.9 c 0,-3.8 -1.3,-7.1 -3.8,-9.6 -2.6,-2.5 -5.8,-3.8 -9.6,-3.8 z m -6.7,11.4 0.1,-0.2 c 0.5,-1.5 1.3,-2.8 2.4,-3.7 1.1,-0.9 2.5,-1.4 4.2,-1.4 1.7,0 3,0.5 4.2,1.5 1.1,1 1.8,2.2 2.1,3.7 v 0.2 h -13 z"
   id="path232" />

		<rect
   x="480.10001"
   y="61"
   class="st0"
   width="7.1999998"
   height="38.700001"
   id="rect234" />

	</g>

</g>
  </g>
  <style
     type="text/css"
     id="style164">
	.st0{fill:#FFFFFF;}
</style>
</svg>
